<?xml version="1.0" encoding="UTF-8" standalone="no"?>
<!-- Created with Inkscape (http://www.inkscape.org/) -->

<svg
   width="66.677544mm"
   height="78.236588mm"
   viewBox="0 0 66.677544 78.236588"
   version="1.1"
   id="svg930"
   inkscape:version="1.1 (c68e22c387, 2021-05-23)"
   sodipodi:docname="piraeus.svg"
   xmlns:inkscape="http://www.inkscape.org/namespaces/inkscape"
   xmlns:sodipodi="http://sodipodi.sourceforge.net/DTD/sodipodi-0.dtd"
   xmlns="http://www.w3.org/2000/svg"
   xmlns:svg="http://www.w3.org/2000/svg">
  <sodipodi:namedview
     id="namedview932"
     pagecolor="#ffffff"
     bordercolor="#666666"
     borderopacity="1.0"
     inkscape:pageshadow="2"
     inkscape:pageopacity="0.0"
     inkscape:pagecheckerboard="0"
     inkscape:document-units="mm"
     showgrid="false"
     inkscape:zoom="0.67081229"
     inkscape:cx="397.27954"
     inkscape:cy="572.44032"
     inkscape:window-width="1920"
     inkscape:window-height="1106"
     inkscape:window-x="-11"
     inkscape:window-y="-11"
     inkscape:window-maximized="1"
     inkscape:current-layer="layer1" />
  <defs
     id="defs927">
    <clipPath
       clipPathUnits="userSpaceOnUse"
       id="clipPath77">
      <path
         d="m 32.717,108.605 h 267.165 v 322.79 H 32.717 Z"
         id="path75" />
    </clipPath>
    <clipPath
       clipPathUnits="userSpaceOnUse"
       id="clipPath63">
      <path
         d="M 80.453,159.114 H 269.469 V 380.887 H 80.453 Z"
         id="path61" />
    </clipPath>
    <clipPath
       clipPathUnits="userSpaceOnUse"
       id="clipPath63-1">
      <path
         d="M 80.453,159.114 H 269.469 V 380.887 H 80.453 Z"
         id="path61-8" />
    </clipPath>
    <clipPath
       clipPathUnits="userSpaceOnUse"
       id="clipPath77-2">
      <path
         d="m 32.717,108.605 h 267.165 v 322.79 H 32.717 Z"
         id="path75-6" />
    </clipPath>
  </defs>
  <g
     inkscape:label="Layer 1"
     inkscape:groupmode="layer"
     id="layer1"
     transform="translate(-0.08181493,-0.66754352)">
    <g
       id="g57"
       transform="matrix(0.35277777,0,0,-0.35277777,-28.300215,135.03601)">
      <g
         id="g59"
         clip-path="url(#clipPath63-1)">
        <g
           id="g65"
           transform="matrix(0.3997345,0,0,-0.3929138,-310.51181,-49.606293)">
          <g
             id="g67"
             transform="translate(1450.8931,-648.6731)">
            <path
               d="m 0,0 c -2.087,34.264 -25.444,58.343 -45.198,70.386 -7.263,4.658 -17.52,7.185 -41.88,9.729 -24.342,2.561 -69.146,-2.994 -114.803,2.263 -13.355,1.497 -25.573,15.944 -29.818,29.765 l -2.123,5.319 -7.385,-15.945 c -19.13,-29.766 -29.661,-21.067 -77.588,-20.205 -60.74,1.1 -109.045,5.442 -134.399,-28.277 -18.875,-25.1 -20.223,-39.98 -19.511,-58.52 L -471.33,-446.257 0,-446.97 Z"
               style="fill:#10385a;fill-opacity:1;fill-rule:nonzero;stroke:none"
               id="path69" />
          </g>
        </g>
      </g>
    </g>
    <g
       id="g71"
       transform="matrix(0.35277777,0,0,-0.35277777,-28.300215,135.03601)">
      <g
         id="g73"
         clip-path="url(#clipPath77-2)">
        <g
           id="g79"
           transform="matrix(0.3997345,0,0,-0.3929138,-310.51181,-49.606293)">
          <g
             id="g81"
             transform="translate(1211.103,-577.9961)">
            <path
               d="m 0,0 c -18.4,-15.997 -92.564,-7.712 -114.66,-7.527 -33.015,0.291 -62.191,3.591 -88.902,-29.729 -11.691,-14.881 -10.248,-30.217 -10.071,-46.847 l 3.61,-410.373 H 0 Z"
               style="fill:#8f1535;fill-opacity:1;fill-rule:nonzero;stroke:none"
               id="path83" />
          </g>
        </g>
        <g
           id="g85"
           transform="matrix(0.3997345,0,0,-0.3929138,-310.51181,-49.606293)">
          <g
             id="g87"
             transform="translate(1040.6095,-1041.2007)">
            <path
               d="M 0,0 V 107.759 H -24.371 V 0 L -31.65,-19.016 H 53.931 V 107.759 H 31.948 V 0 Z"
               style="fill:#10385a;fill-opacity:1;fill-rule:nonzero;stroke:none"
               id="path89" />
          </g>
        </g>
        <g
           id="g91"
           transform="matrix(0.3997345,0,0,-0.3929138,-310.51181,-49.606293)">
          <g
             id="g93"
             transform="translate(1146.166,-711.6821)">
            <path
               d="M 0,0 V 107.758 H -24.967 V 0 L -32.24,-19.024 H 53.343 V 107.758 H 31.378 V 0 Z"
               style="fill:#10385a;fill-opacity:1;fill-rule:nonzero;stroke:none"
               id="path95" />
          </g>
        </g>
        <g
           id="g97"
           transform="matrix(0.3997345,0,0,-0.3929138,-310.51181,-49.606293)">
          <g
             id="g99"
             transform="translate(1098.0801,-794.474)">
            <path
               d="m 0,0 4.728,20.664 78.538,15.953 20.671,-111.027 -12.995,-16.542 -62.595,-14.755 -8.855,6.497 -7.677,-10.044 -58.458,-10.037 -21.851,8.856 -22.449,111.607 73.22,14.773 z M 19.491,-99.21 -0.599,0.592 -70.281,-11.806 -47.242,-118.692 M 0,0.592 70.871,15.945 91.524,-90.353 M -91.535,1.77 -69.675,-11.806 M 83.266,37.205 70.271,15.945"
               style="fill:none;stroke:#f7ec13;stroke-width:1.575;stroke-linecap:butt;stroke-linejoin:miter;stroke-miterlimit:4;stroke-dasharray:none;stroke-opacity:1"
               id="path101" />
          </g>
        </g>
        <g
           id="g103"
           transform="matrix(0.3997345,0,0,-0.3929138,-310.51181,-49.606293)">
          <g
             id="g105"
             transform="translate(1098.0801,-794.474)">
            <path
               d="m 0,0 4.728,20.664 78.538,15.953 20.671,-111.027 -12.995,-16.542 -62.595,-14.755 -8.855,6.497 -7.677,-10.044 -58.458,-10.037 -21.851,8.856 -22.449,111.607 73.22,14.773 z"
               style="fill:#ffffff;fill-opacity:1;fill-rule:nonzero;stroke:none"
               id="path107" />
          </g>
        </g>
        <g
           id="g109"
           transform="matrix(0.3997345,0,0,-0.3929138,-310.51181,-49.606293)">
          <g
             id="g111"
             transform="translate(1098.0801,-794.474)">
            <path
               d="m 0,0 4.728,20.664 78.538,15.953 20.671,-111.027 -12.995,-16.542 -62.595,-14.755 -8.855,6.497 -7.677,-10.044 -58.458,-10.037 -21.851,8.856 -22.449,111.607 73.22,14.773 z"
               style="fill:none;stroke:#10385a;stroke-width:3;stroke-linecap:butt;stroke-linejoin:miter;stroke-miterlimit:10;stroke-dasharray:none;stroke-opacity:1"
               id="path113" />
          </g>
        </g>
        <g
           id="g115"
           transform="matrix(0.3997345,0,0,-0.3929138,-310.51181,-49.606293)">
          <g
             id="g117"
             transform="translate(1117.571,-893.6841)">
            <path
               d="M 0,0 -20.09,99.802 -89.772,87.404 -66.733,-19.482"
               style="fill:#ffffff;fill-opacity:1;fill-rule:nonzero;stroke:#10385a;stroke-width:3;stroke-linecap:butt;stroke-linejoin:miter;stroke-miterlimit:10;stroke-dasharray:none;stroke-opacity:1"
               id="path119" />
          </g>
        </g>
        <g
           id="g121"
           transform="matrix(0.3997345,0,0,-0.3929138,-310.51181,-49.606293)">
          <g
             id="g123"
             transform="translate(1098.0801,-793.8821)">
            <path
               d="M 0,0 70.871,15.353 91.524,-90.945"
               style="fill:#ffffff;fill-opacity:1;fill-rule:nonzero;stroke:#10385a;stroke-width:3;stroke-linecap:butt;stroke-linejoin:miter;stroke-miterlimit:10;stroke-dasharray:none;stroke-opacity:1"
               id="path125" />
          </g>
        </g>
        <g
           id="g127"
           transform="matrix(0.3997345,0,0,-0.3929138,-310.51181,-49.606293)">
          <g
             id="g129"
             transform="translate(1006.545,-792.704)">
            <path
               d="M 0,0 21.86,-13.576"
               style="fill:#ffffff;fill-opacity:1;fill-rule:nonzero;stroke:#10385a;stroke-width:3;stroke-linecap:butt;stroke-linejoin:miter;stroke-miterlimit:10;stroke-dasharray:none;stroke-opacity:1"
               id="path131" />
          </g>
        </g>
        <g
           id="g133"
           transform="matrix(0.3997345,0,0,-0.3929138,-310.51181,-49.606293)">
          <g
             id="g135"
             transform="translate(1181.3461,-757.269)">
            <path
               d="M 0,0 -12.995,-21.26"
               style="fill:#ffffff;fill-opacity:1;fill-rule:nonzero;stroke:#10385a;stroke-width:3;stroke-linecap:butt;stroke-linejoin:miter;stroke-miterlimit:10;stroke-dasharray:none;stroke-opacity:1"
               id="path137" />
          </g>
        </g>
        <g
           id="g139"
           transform="matrix(0.3997345,0,0,-0.3929138,-310.51181,-49.606293)">
          <g
             id="g141"
             transform="translate(1211.0911,-577.9961)">
            <path
               d="m 0,0 c 19.361,-15.997 97.401,-7.712 120.653,-7.527 34.741,0.291 65.442,3.591 93.548,-29.729 12.303,-14.881 10.784,-30.217 10.598,-46.847 L 221,-494.476 H 0 Z"
               style="fill:#10385a;fill-opacity:1;fill-rule:nonzero;stroke:none"
               id="path143" />
          </g>
        </g>
        <g
           id="g145"
           transform="matrix(0.3997345,0,0,-0.3929138,-310.51181,-49.606293)">
          <g
             id="g147"
             transform="translate(1329.926,-1030.5063)">
            <path
               d="m 0,0 -5.354,-1.822 4.561,-13.049 11.032,7.211 -3.847,5.82 0.528,-0.555 18.188,63.669 34.494,-9.851 -18.197,-63.66 0.114,0.361 -5.352,-1.806 4.56,-13.055 11.04,7.21 -3.857,5.828 -0.105,-0.379 18.19,63.669 33.216,-9.499 -18.19,-63.66 -5.361,-1.805 4.561,-13.048 11.058,7.202 -3.875,5.828 20.109,70.37 -39.6,11.321 33.771,118.174 -3.186,5.74 L 63.441,57.577 20.003,69.999 -0.106,-0.388 Z"
               style="fill:#ffffff;fill-opacity:1;fill-rule:nonzero;stroke:none"
               id="path149" />
          </g>
        </g>
        <g
           id="g151"
           transform="matrix(0.3997345,0,0,-0.3929138,-310.51181,-49.606293)">
          <g
             id="g153"
             transform="translate(1224.6411,-681.064)">
            <path
               d="m 0,0 v 10.624 c 0,0 13.285,3.99 23.92,-11.963 0,0 22.59,27.908 42.523,1.339 l -1.329,-0.67 c 0,0 17.264,26.578 37.205,0 l 2.667,-1.321 c 0,0 17.256,29.221 37.188,2.659 l 5.316,-1.338 c 0,0 17.283,26.578 37.205,0 0,0 15.945,15.284 21.271,12.625 V -1.339 c 0,0 -23.929,-2.64 -21.271,-7.959 2.651,-5.326 -11.955,25.24 -38.523,0 0,0 -26.589,15.945 -42.524,1.33 h -0.67 c 0,0 -17.263,15.943 -33.207,1.321 l -1.34,-1.321 c 0,0 -26.578,15.943 -42.504,1.321 z"
               style="fill:#ffffff;fill-opacity:1;fill-rule:nonzero;stroke:none"
               id="path155" />
          </g>
        </g>
        <g
           id="g157"
           transform="matrix(0.3997345,0,0,-0.3929138,-310.51181,-49.606293)">
          <g
             id="g159"
             transform="translate(1224.6411,-704.9761)">
            <path
               d="m 0,0 v 10.626 c 0,0 13.285,3.988 23.92,-11.946 0,0 22.59,27.889 42.523,1.32 l -1.329,-0.668 c 0,0 17.264,26.578 37.205,0 l 2.667,-1.331 c 0,0 17.256,29.238 37.188,2.669 l 5.316,-1.338 c 0,0 17.283,26.578 37.205,0 0,0 15.945,15.282 21.271,12.615 V -1.32 c 0,0 -23.929,-2.677 -21.271,-7.976 2.651,-5.318 -11.955,25.24 -38.523,0 0,0 -26.589,15.942 -42.524,1.319 h -0.67 c 0,0 -17.263,15.945 -33.207,1.331 l -1.34,-1.331 c 0,0 -26.578,15.945 -42.504,1.331 z"
               style="fill:#ffffff;fill-opacity:1;fill-rule:nonzero;stroke:none"
               id="path161" />
          </g>
        </g>
        <g
           id="g163"
           transform="matrix(0.3997345,0,0,-0.3929138,-310.51181,-49.606293)">
          <g
             id="g165"
             transform="translate(1224.6411,-728.906)">
            <path
               d="m 0,0 v 10.645 c 0,0 13.285,3.988 23.92,-11.965 0,0 22.59,27.909 42.523,1.32 l -1.329,-0.65 c 0,0 17.264,26.569 37.205,0 l 2.667,-1.33 c 0,0 17.256,29.229 37.188,2.65 l 5.316,-1.32 c 0,0 17.283,26.569 37.205,0 0,0 15.945,15.283 21.271,12.615 V -1.32 c 0,0 -23.929,-2.658 -21.271,-7.976 2.651,-5.317 -11.955,25.249 -38.523,0 0,0 -26.589,15.953 -42.524,1.322 h -0.67 c 0,0 -17.263,15.959 -33.207,1.345 l -1.34,-1.345 c 0,0 -26.578,15.959 -42.504,1.345 z"
               style="fill:#ffffff;fill-opacity:1;fill-rule:nonzero;stroke:none"
               id="path167" />
          </g>
        </g>
        <g
           id="g169"
           transform="matrix(0.3997345,0,0,-0.3929138,-310.51181,-49.606293)">
          <g
             id="g171"
             transform="translate(1224.6411,-752.826)">
            <path
               d="m 0,0 v 10.645 c 0,0 13.285,3.98 23.92,-11.973 0,0 22.59,27.916 42.523,1.328 l -1.329,-0.65 c 0,0 17.264,26.568 37.205,0 l 2.667,-1.33 c 0,0 17.256,29.22 37.188,2.65 l 5.316,-1.32 c 0,0 17.283,26.568 37.205,0 0,0 15.945,15.275 21.271,12.615 V -1.328 c 0,0 -23.929,-2.641 -21.271,-7.961 2.651,-5.314 -11.955,25.234 -38.523,0 0,0 -26.589,15.936 -42.524,1.34 h -0.67 c 0,0 -17.263,15.927 -33.207,1.32 l -1.34,-1.32 c 0,0 -26.578,15.927 -42.504,1.32 z"
               style="fill:#ffffff;fill-opacity:1;fill-rule:nonzero;stroke:none"
               id="path173" />
          </g>
        </g>
        <g
           id="g175"
           transform="matrix(0.3997345,0,0,-0.3929138,-310.51181,-49.606293)">
          <g
             id="g177"
             transform="translate(1436.505,-823.229)">
            <path
               d="m 0,0 -44.882,19.623 c 0,0 41.344,-29.519 46.063,-25.979 z"
               style="fill:#ffffff;fill-opacity:1;fill-rule:nonzero;stroke:none"
               id="path179" />
          </g>
        </g>
        <g
           id="g181"
           transform="matrix(0.3997345,0,0,-0.3929138,-310.51181,-49.606293)">
          <g
             id="g183"
             transform="translate(1366.321,-935.707)">
            <path
               d="m 0,0 c 5.08,6.136 6.551,13.751 6.982,21.816 -3.188,0.44 -5,-4.27 -6.118,-6.973 2.253,-5.326 -3.822,-7.175 -4.35,-11.347 -7.845,6.294 0,16.286 0,24.412 5.044,2.465 1.03,8.681 3.486,12.219 -1.453,2.616 -1.056,6.005 -4.357,7.836 -0.59,8.126 4.394,13.936 4.357,21.79 H -1.742 C -4.991,60.571 -5.458,50.217 -8.723,41 c -3.005,0.061 -4.852,-7.916 -7.828,-2.616 3.759,5.793 -4.243,13.233 3.468,17.424 -1.813,5.537 8.171,10.942 0.864,13.945 0.061,-1.523 -1.727,-2.315 -2.606,-3.469 -2.456,0.449 -3.258,3.099 -3.478,5.22 3.39,3.258 6.4,7.449 11.331,6.982 0.475,1.374 1.136,2.685 0.863,4.367 -2.122,1.435 -5.662,1.065 -7.837,0 -2.544,-1.54 -1.752,-6.762 -6.108,-5.221 -6.409,5.591 -2.317,12.282 -3.487,20.037 0.871,0.599 1.355,2.104 2.623,1.744 3.188,-2.994 1.155,-8.126 1.727,-12.203 4.348,0.124 9.939,-0.968 11.338,4.367 0.581,2.316 -1.442,5.74 1.744,6.973 2.481,-0.158 2.324,-2.896 3.512,-4.366 6.804,11.48 7.095,27.195 16.56,38.367 -1.619,5.766 3.347,10.987 -0.897,15.698 -2.853,-1.322 -4.641,2.605 -6.965,0 2.809,-5.327 -0.949,-10.1 -4.366,-13.956 -4.886,1.795 1.981,6.752 0,11.338 -2.615,-1.838 -5.573,-2.78 -4.332,-6.989 0.784,-2.42 -1.224,-3.706 -2.641,-5.211 -5.24,2.386 0,12.2 -7.845,10.443 -7.412,-4.351 0.407,-11.799 -6.108,-16.561 0.509,-2.58 -0.572,-4.552 -2.607,-6.084 -1.62,-0.563 -2.456,0.792 -3.477,1.717 -0.291,1.751 0.73,4.031 -0.89,5.247 -3.609,-0.282 -6.03,-9.798 -11.322,-5.247 -2.923,-2.324 -4.137,-9.49 -8.724,-6.982 -3.601,-3.715 -6.171,-15.089 -13.945,-12.185 -3.548,-5.722 -3.398,-12.985 -7.862,-18.32 v -5.221 c 1.551,0.044 2.324,-1.752 3.495,-2.606 -2.614,-2.332 1.312,-4.12 0,-6.981 l 3.477,5.22 c 3.187,-0.862 0.616,-8.232 5.247,-4.367 2.615,5.247 7.994,9.324 7.845,15.706 -2.131,0.053 -2.738,-3.591 -5.23,-2.605 -4.235,1.761 0.731,4.084 -0.889,6.972 1.373,3.267 3.496,0.502 5.248,0 2.456,3.047 -1.62,11.103 3.486,13.066 3.256,-1.621 2.5,-4.905 2.615,-7.845 4.763,4.288 -0.203,13.638 2.605,20.056 1.023,0.941 1.866,2.279 3.495,1.734 4.368,-2.836 -1.302,-6.55 2.623,-9.588 -0.843,-2.5 -1.954,-4.886 -1.752,-7.844 2.034,-0.123 4.834,2.51 6.102,-0.854 -1.566,-3.61 -5.406,-1.646 -6.973,-5.256 -2.781,-5.264 6.481,-11.401 -1.743,-13.065 l -2.605,3.478 c -1.471,-2.456 3.187,-5.731 -1.752,-5.221 l -0.873,0.863 -4.357,-18.311 c 4.78,0.589 7.774,5.528 12.201,6.963 3.919,-3.522 0,-8.127 0,-12.193 -0.58,-3.769 -2.456,-7.026 -1.734,-11.34 5.362,1.602 6.816,7.132 12.212,8.733 2.975,-1.408 5.221,-4.665 7.826,-6.99 0.124,-3.073 -1.796,-6.884 -5.221,-6.963 h -6.981 c 1.268,-5.212 -5.582,-7.018 -4.35,-12.203 -5.017,-10.59 17.29,-12.985 3.505,-21.824 1.495,2.131 5.072,-0.704 6.075,2.641 2.904,-2.703 1.883,-8.109 0.88,-11.34 0.8,-0.29 1.234,0.396 1.743,0.864 1.462,-0.864 2.14,-3.584 4.349,-2.616 0.475,1.374 1.162,2.686 0.898,4.367 l -3.503,3.478 2.605,2.606 c 3.909,-1.656 5.776,-5.696 6.118,-9.579 -0.827,-2.421 -3.494,-4.059 -5.22,-6.092 -1.885,5.071 -7.528,1.021 -10.476,3.478 -1.489,-1.206 -0.511,-3.417 -2.624,-4.359 -0.845,1.454 -3.574,2.131 -2.605,4.359 l -1.745,-1.753 c -0.861,1.172 -2.683,1.946 -2.623,3.495 -1.452,-2.042 -4.207,-0.149 -4.348,1.752 v 0.864 h -1.752 c -1.595,-2.659 -0.582,-6.409 -0.873,-9.597 1.743,0.511 3.875,3.292 5.23,0 v -0.854 c 0.934,1.135 2.255,1.33 3.505,1.734 3.186,-3.265 1.583,-5.634 -0.891,-8.707 C -22.687,-14.966 -10.952,-8.425 0,0"
               style="fill:#ffffff;fill-opacity:1;fill-rule:nonzero;stroke:none"
               id="path185" />
          </g>
        </g>
        <g
           id="g187"
           transform="matrix(0.3997345,0,0,-0.3929138,-310.51181,-49.606293)">
          <g
             id="g189"
             transform="translate(1320.9821,-947.02)">
            <path
               d="M 0,0 C -1.267,-0.352 -1.751,1.153 -2.615,1.734 -1.637,5.141 -3.97,5.625 -6.093,6.982 -8.082,3.548 -12.96,3.372 -13.066,-0.889 -9.702,-6.065 -3.486,-2.403 0,0"
               style="fill:#ffffff;fill-opacity:1;fill-rule:nonzero;stroke:none"
               id="path191" />
          </g>
        </g>
        <g
           id="g193"
           transform="matrix(0.3997345,0,0,-0.3929138,-310.51181,-49.606293)">
          <g
             id="g195"
             transform="translate(1299.1841,-944.405)">
            <path
               d="M 0,0 C -1.902,3.478 3.583,3.874 2.614,6.972 -0.476,7.368 -1.657,3.142 -4.367,2.615 V 0 Z"
               style="fill:#ffffff;fill-opacity:1;fill-rule:nonzero;stroke:none"
               id="path197" />
          </g>
        </g>
        <g
           id="g199"
           transform="matrix(0.3997345,0,0,-0.3929138,-310.51181,-49.606293)">
          <g
             id="g201"
             transform="translate(1293.0651,-937.433)">
            <path
               d="M 0,0 V 4.367 C -2.756,4.693 -1.576,0.327 -4.359,-0.88 -3.161,-2.587 -0.924,-1.531 0,0"
               style="fill:#ffffff;fill-opacity:1;fill-rule:nonzero;stroke:none"
               id="path203" />
          </g>
        </g>
        <g
           id="g205"
           transform="matrix(0.3997345,0,0,-0.3929138,-310.51181,-49.606293)">
          <g
             id="g207"
             transform="translate(1284.3401,-933.066)">
            <path
               d="M 0,0 -0.854,8.708 H -2.605 L -4.331,-3.503 C -1.126,-4.764 -1.303,-1.531 0,0"
               style="fill:#ffffff;fill-opacity:1;fill-rule:nonzero;stroke:none"
               id="path209" />
          </g>
        </g>
        <g
           id="g211"
           transform="matrix(0.3997345,0,0,-0.3929138,-310.51181,-49.606293)">
          <g
             id="g213"
             transform="translate(1273.899,-930.4601)">
            <path
               d="M 0,0 C -0.176,2.976 2.059,6.057 0,8.708 -2.483,8.751 -2.325,4.667 -3.503,2.615 L -5.238,-1.751 C -3.276,-1.682 -1.091,-2.192 0,0"
               style="fill:#ffffff;fill-opacity:1;fill-rule:nonzero;stroke:none"
               id="path215" />
          </g>
        </g>
        <g
           id="g217"
           transform="matrix(0.3997345,0,0,-0.3929138,-310.51181,-49.606293)">
          <g
             id="g219"
             transform="translate(1331.459,-925.2311)">
            <path
               d="M 0,0 C -1.876,3.275 -0.917,9.236 -6.11,9.597 H -8.735 C -10.125,3.874 -6.516,0.238 -5.257,-4.348 -1.471,-5.713 -0.802,-2.394 0,0"
               style="fill:#ffffff;fill-opacity:1;fill-rule:nonzero;stroke:none"
               id="path221" />
          </g>
        </g>
        <g
           id="g223"
           transform="matrix(0.3997345,0,0,-0.3929138,-310.51181,-49.606293)">
          <g
             id="g225"
             transform="translate(1267.7881,-922.6071)">
            <path
               d="M 0,0 C -1.603,1.497 -0.58,4.05 -0.861,6.093 -2.041,5.811 -3.75,6.833 -4.367,5.222 l -2.604,2.605 c 1.584,0.933 0.562,2.932 0.869,4.366 -2.719,1.119 -6.504,-0.175 -6.971,3.505 -2.385,0.774 -1.216,4.551 -4.357,3.469 -0.44,-4.896 0.421,-9.253 2.605,-13.074 l 4.367,4.366 C -6.674,6.023 -14.842,-2.35 -6.102,-5.237 -1.999,-6.655 -2.041,-1.751 0,0"
               style="fill:#ffffff;fill-opacity:1;fill-rule:nonzero;stroke:none"
               id="path227" />
          </g>
        </g>
        <g
           id="g229"
           transform="matrix(0.3997345,0,0,-0.3929138,-310.51181,-49.606293)">
          <g
             id="g231"
             transform="translate(1318.3671,-913.0291)">
            <path
               d="m 0,0 c -0.467,0.511 -1.152,0.933 -0.871,1.752 -0.873,-1.857 -5.671,-4.692 -2.608,-7.843 -1.417,-1.383 -3.398,-4.05 -5.244,-1.744 3.008,0.326 4.841,-4.701 7.852,-1.744 z"
               style="fill:#ffffff;fill-opacity:1;fill-rule:nonzero;stroke:none"
               id="path233" />
          </g>
        </g>
        <g
           id="g235"
           transform="matrix(0.3997345,0,0,-0.3929138,-310.51181,-49.606293)">
          <g
             id="g237"
             transform="translate(1355.844,-921.7521)">
            <path
               d="M 0,0 -1.742,4.367 C -4.489,3.371 -3.68,-0.203 -2.606,-1.734 -1.338,-2.096 -0.854,-0.572 0,0"
               style="fill:#ffffff;fill-opacity:1;fill-rule:nonzero;stroke:none"
               id="path239" />
          </g>
        </g>
        <g
           id="g241"
           transform="matrix(0.3997345,0,0,-0.3929138,-310.51181,-49.606293)">
          <g
             id="g243"
             transform="translate(1344.5231,-915.634)">
            <path
               d="m 0,0 c 2.184,-0.141 2.607,-4.648 5.247,-1.751 0.968,2.227 -1.752,2.922 -2.64,4.356 -3.522,-0.527 -6.798,-3.01 -9.589,0.881 -1.417,-4.392 3.874,-3.733 5.239,-6.972 z"
               style="fill:#ffffff;fill-opacity:1;fill-rule:nonzero;stroke:none"
               id="path245" />
          </g>
        </g>
        <g
           id="g247"
           transform="matrix(0.3997345,0,0,-0.3929138,-310.51181,-49.606293)">
          <g
             id="g249"
             transform="translate(1303.55,-913.8911)">
            <path
               d="M 0,0 C -2.368,5.264 -3.195,11.155 -5.247,16.568 H -7.87 C -9.562,11.673 -4.597,8.46 -6.972,4.358 -2.192,3.609 -4.438,-1.62 -2.606,-4.367 0,-5.159 -0.44,-1.638 0,0"
               style="fill:#ffffff;fill-opacity:1;fill-rule:nonzero;stroke:none"
               id="path251" />
          </g>
        </g>
        <g
           id="g253"
           transform="matrix(0.3997345,0,0,-0.3929138,-310.51181,-49.606293)">
          <g
             id="g255"
             transform="translate(1310.5221,-914.78)">
            <path
               d="M 0,0 C -2.078,0.22 -1.725,-2.069 -1.751,-3.478 H 0 Z"
               style="fill:#ffffff;fill-opacity:1;fill-rule:nonzero;stroke:none"
               id="path257" />
          </g>
        </g>
        <g
           id="g259"
           transform="matrix(0.3997345,0,0,-0.3929138,-310.51181,-49.606293)">
          <g
             id="g261"
             transform="translate(1291.3301,-913.0291)">
            <path
               d="M 0,0 C -0.351,2.545 1.162,6.621 -2.624,6.973 -3.698,7.528 -3.451,8.619 -3.485,9.588 -7.404,11.375 -6.479,6.781 -7.845,5.23 -8.847,2.835 -6.269,3.416 -5.237,2.615 -2.35,3.743 -2.306,-0.887 0,0"
               style="fill:#ffffff;fill-opacity:1;fill-rule:nonzero;stroke:none"
               id="path263" />
          </g>
        </g>
        <g
           id="g265"
           transform="matrix(0.3997345,0,0,-0.3929138,-310.51181,-49.606293)">
          <g
             id="g267"
             transform="translate(1268.6611,-902.552)">
            <path
               d="M 0,0 C -3.134,4.156 3.232,13.171 -4.359,11.34 -0.308,7.555 -5.362,1.708 0,0"
               style="fill:#ffffff;fill-opacity:1;fill-rule:nonzero;stroke:none"
               id="path269" />
          </g>
        </g>
        <g
           id="g271"
           transform="matrix(0.3997345,0,0,-0.3929138,-310.51181,-49.606293)">
          <g
             id="g273"
             transform="translate(1279.119,-899.0831)">
            <path
               d="M 0,0 C -4.136,1.672 -1.206,-2.711 -4.357,-3.469 -2.103,-3.865 1.426,-3.24 0,0"
               style="fill:#ffffff;fill-opacity:1;fill-rule:nonzero;stroke:none"
               id="path275" />
          </g>
        </g>
        <g
           id="g277"
           transform="matrix(0.3997345,0,0,-0.3929138,-310.51181,-49.606293)">
          <g
             id="g279"
             transform="translate(1320.9821,-901.6891)">
            <path
               d="M 0,0 C -1.884,3.345 -3.346,-4.208 -4.359,0.863 -5.186,1.145 -5.599,0.467 -6.093,0 -4.605,-1.312 -1.488,-1.312 0,0"
               style="fill:#ffffff;fill-opacity:1;fill-rule:nonzero;stroke:none"
               id="path281" />
          </g>
        </g>
        <g
           id="g283"
           transform="matrix(0.3997345,0,0,-0.3929138,-310.51181,-49.606293)">
          <g
             id="g285"
             transform="translate(1258.193,-888.6061)">
            <path
               d="M 0,0 C -0.564,0.861 -2.079,1.356 -1.744,2.624 -3.875,0.845 -1.523,-2.766 -0.863,-5.248 0.74,-4.808 -0.291,-1.752 0,0"
               style="fill:#ffffff;fill-opacity:1;fill-rule:nonzero;stroke:none"
               id="path287" />
          </g>
        </g>
        <g
           id="g289"
           transform="matrix(0.3997345,0,0,-0.3929138,-310.51181,-49.606293)">
          <g
             id="g291"
             transform="translate(1315.744,-886.8721)">
            <path
               d="M 0,0 V 10.467 C -2.326,11.542 -2.414,8.813 -3.496,7.853 -5.618,3.028 1.928,-1.048 -4.359,-4.341 H -6.1 V -6.092 C -0.679,-8.531 -2.035,-2.016 0,0"
               style="fill:#ffffff;fill-opacity:1;fill-rule:nonzero;stroke:none"
               id="path293" />
          </g>
        </g>
        <g
           id="g295"
           transform="matrix(0.3997345,0,0,-0.3929138,-310.51181,-49.606293)">
          <g
             id="g297"
             transform="translate(1293.963,-864.203)">
            <path
               d="M 0,0 C 0.605,-1.593 2.307,-0.581 3.477,-0.854 3.144,2.519 0.925,5.106 -0.898,7.872 -1.857,7.818 -2.968,8.064 -3.503,6.981 -0.538,4.324 -6.066,-1.98 0,0"
               style="fill:#ffffff;fill-opacity:1;fill-rule:nonzero;stroke:none"
               id="path299" />
          </g>
        </g>
        <g
           id="g301"
           transform="matrix(0.3997345,0,0,-0.3929138,-310.51181,-49.606293)">
          <g
             id="g303"
             transform="translate(1262.5601,-851.1011)">
            <path
               d="m 0,0 c -0.873,9.199 2.165,16.797 -2.624,24.395 l -1.743,7.853 c -6.375,2.526 -11.111,9.041 -18.312,9.595 1.283,-4.983 7.889,-4.427 11.331,-7.862 C 1.152,23.293 -2.042,6.083 -5.23,-7.872 -1.795,-7.466 -1.743,-2.625 0,0"
               style="fill:#ffffff;fill-opacity:1;fill-rule:nonzero;stroke:none"
               id="path305" />
          </g>
        </g>
        <g
           id="g307"
           transform="matrix(0.3997345,0,0,-0.3929138,-310.51181,-49.606293)">
          <g
             id="g309"
             transform="translate(1272.147,-813.615)">
            <path
               d="M 0,0 C -0.529,1.083 -1.629,0.836 -2.606,0.854 -2.764,-9.843 1.02,-18.929 0.88,-29.661 1.883,-21.077 2.895,-9.878 0,0"
               style="fill:#ffffff;fill-opacity:1;fill-rule:nonzero;stroke:none"
               id="path311" />
          </g>
        </g>
        <g
           id="g313"
           transform="matrix(0.3997345,0,0,-0.3929138,-310.51181,-49.606293)">
          <g
             id="g315"
             transform="translate(1306.165,-826.7061)">
            <path
               d="M 0,0 C -3.434,0.202 -4.411,-3.689 -5.221,-6.092 -3.055,-5.01 0,-2.738 0,0"
               style="fill:#ffffff;fill-opacity:1;fill-rule:nonzero;stroke:none"
               id="path317" />
          </g>
        </g>
        <g
           id="g319"
           transform="matrix(0.3997345,0,0,-0.3929138,-310.51181,-49.606293)">
          <g
             id="g321"
             transform="translate(1338.431,-824.9631)">
            <path
               d="M 0,0 C -0.89,0.59 -1.382,2.087 -2.606,1.759 -4.657,0.713 -2.659,-0.836 -1.761,-1.743 Z"
               style="fill:#ffffff;fill-opacity:1;fill-rule:nonzero;stroke:none"
               id="path323" />
          </g>
        </g>
        <g
           id="g325"
           transform="matrix(0.3997345,0,0,-0.3929138,-310.51181,-49.606293)">
          <g
             id="g327"
             transform="translate(1350.623,-811.863)">
            <path
               d="m 0,0 c -0.553,1.082 -1.627,0.836 -2.605,0.854 -0.775,-5.336 -9.367,-8.522 -5.238,-14.808 h 0.871 z"
               style="fill:#ffffff;fill-opacity:1;fill-rule:nonzero;stroke:none"
               id="path329" />
          </g>
        </g>
        <g
           id="g331"
           transform="matrix(0.3997345,0,0,-0.3929138,-310.51181,-49.606293)">
          <g
             id="g333"
             transform="translate(1361.083,-825.8171)">
            <path
               d="M 0,0 C 2.087,6.057 1.735,14.218 1.752,20.027 -0.449,17.334 -0.978,12.431 -2.614,8.698 -3.116,8.24 -3.549,7.571 -4.34,7.835 c -1.753,1.743 1.302,4.797 -2.641,5.221 -2.897,-2.378 -1.867,-7.493 -0.864,-10.442 3.134,0.88 0.732,6.348 5.231,4.349 1.593,-0.906 0.58,-2.888 0.88,-4.349 L -2.614,1.725 C -1.734,1.144 -1.242,-0.362 0,0"
               style="fill:#ffffff;fill-opacity:1;fill-rule:nonzero;stroke:none"
               id="path335" />
          </g>
        </g>
        <g
           id="g337"
           transform="matrix(0.3997345,0,0,-0.3929138,-310.51181,-49.606293)">
          <g
             id="g339"
             transform="translate(1376.781,-797.0651)">
            <path
               d="m 0,0 -1.754,1.753 c -1.927,-6.144 -9.658,-7.607 -6.971,-15.697 l -2.615,-2.606 3.504,-2.624 C -5.23,-12.765 -6.534,-4.745 0,0"
               style="fill:#ffffff;fill-opacity:1;fill-rule:nonzero;stroke:none"
               id="path341" />
          </g>
        </g>
        <g
           id="g343"
           transform="matrix(0.3997345,0,0,-0.3929138,-310.51181,-49.606293)">
          <g
             id="g345"
             transform="translate(1356.743,-795.312)">
            <path
               d="m 0,0 c -2.993,1.135 -2.078,-2.43 -3.505,-3.486 l 0.864,-2.616 C -0.598,-4.552 0.51,-2.605 0,0"
               style="fill:#ffffff;fill-opacity:1;fill-rule:nonzero;stroke:none"
               id="path347" />
          </g>
        </g>
        <g
           id="g349"
           transform="matrix(0.3997345,0,0,-0.3929138,-310.51181,-49.606293)">
          <g
             id="g351"
             transform="translate(1343.6511,-798.7991)">
            <path
               d="M 0,0 C 1.25,3.434 -2.791,5.803 1.752,7.862 L 4.367,6.102 C 5.502,7.035 5.696,8.373 6.119,9.588 0.979,14.782 -3.336,7.634 -7.826,6.102 -9.271,3.979 -8.899,0.432 -7.826,-1.726 -5.131,-1.426 -3.213,0.864 0,0"
               style="fill:#ffffff;fill-opacity:1;fill-rule:nonzero;stroke:none"
               id="path353" />
          </g>
        </g>
      </g>
    </g>
  </g>
</svg>
