<?xml version="1.0" encoding="utf-8"?>
<svg viewBox="-19.769 0 393.478 341.115" xmlns="http://www.w3.org/2000/svg">
  <defs>
    <linearGradient id="yellow" x1="129.2" x2="129.2" y1="68.96" y2="191.76" gradientTransform="matrix(1.091559, 0, 0, 1.216388, 0.648643, -14.028326)" gradientUnits="userSpaceOnUse">
      <stop stop-color="#fc0" offset="0"/>
      <stop stop-color="#fc0" offset="0.35"/>
      <stop stop-color="#f9c000" offset="0.44"/>
      <stop stop-color="#e59d00" offset="0.73"/>
      <stop stop-color="#de9000" offset="0.88"/>
    </linearGradient>
    <linearGradient id="blue1" x1="112.03" x2="241.41" y1="147.04" y2="147.04" gradientTransform="matrix(1.091559, 0, 0, 1.216388, 0.648643, -14.028326)" gradientUnits="userSpaceOnUse">
      <stop stop-color="#00a0e8" offset="0"/>
      <stop stop-color="#005ba9" offset="0.91"/>
    </linearGradient>
    <linearGradient id="blue2" x1="31.43" x2="294.24" y1="80.07" y2="80.07" gradientTransform="matrix(1.091559, 0, 0, 1.216388, 0.648643, -14.028326)" gradientUnits="userSpaceOnUse">
      <stop stop-color="#00a0e8" offset="0"/>
      <stop stop-color="#005ba9" offset="1"/>
    </linearGradient>
  </defs>
  <path d="M 92.645 208.362 L 104.478 197.84 L 116.354 219.224 L 116.354 133.541 C 139.953 118.556 162.199 104.324 185.821 89.362 C 199.378 80.519 182.066 62.772 166.391 72.99 L 163.629 74.741 C 140.903 89.18 115.371 105.54 92.678 119.991 L 92.645 208.362 Z" fill="url(#yellow)" style=""/>
  <path d="M 241.708 169.036 L 241.708 123.312 L 264.129 110.43 L 264.129 164.462 C 264.129 174.996 265.002 180.786 257.361 187.403 C 233.02 208.532 208.776 219.26 178.245 219.236 C 158.783 219.236 141.034 214.833 123.547 204.798 L 123.547 175.726 C 140.696 188.145 158.084 194.239 178.322 194.264 C 202.522 194.239 222.235 185.457 241.708 169.036 Z" fill="url(#blue1)" style=""/>
  <path d="M 123.547 137.702 L 168.388 163.489 C 174.757 166.667 182.04 166.667 188.408 163.489 L 317.703 89.131 C 323.161 85.956 323.161 80.775 317.703 77.612 C 274.6 52.822 231.499 28.032 188.397 3.242 C 182.025 0.079 174.749 0.079 168.378 3.242 C 125.29 28.048 82.196 52.838 39.093 77.612 C 33.636 80.775 33.636 85.956 39.093 89.131 L 85.397 115.758 L 109.892 100.2 C 104.139 96.892 86.369 86.686 80.627 83.365 L 178.333 26.962 L 276.169 83.365 L 178.398 139.611 L 148.009 122.205 L 123.547 137.702 Z" fill="url(#blue2)" style=""/>
  <path class="cls-4" d="M 235.263 305.13 C 235.263 309.741 238.915 313.296 243.892 313.296 C 248.868 313.296 252.52 309.759 252.52 305.13 C 252.52 300.502 248.868 296.97 243.892 296.97 C 238.915 296.97 235.263 300.52 235.263 305.13 Z" fill="#005ba9" style=""/>
  <g transform="matrix(0.451982, 0, 0, 0.442064, 256.926147, 312.309753)" fill="#005ba9" aria-label="eu" style="">
    <path d="m38.531-43.046h78.065c0.90306-3.0102 1.5051-7.1241 1.5051-10.636 0-29.199-23.179-52.679-54.986-52.679-32.41 0-56.993 23.881-56.993 54.384s23.981 54.384 58.599 54.384c18.463 0 34.517-6.4218 45.956-18.864l-17.459-17.76c-7.8265 7.5255-17.56 12.342-28.095 12.342-14.148 0-24.383-8.0272-26.59-21.172zm24.182-39.032c11.94 0 20.068 7.2245 22.576 18.663h-46.257c3.0102-11.639 11.94-18.663 23.68-18.663z"/>
    <path d="m201.14 0h32.309v-103.95h-32.309v66.325c-3.6122 6.1207-10.837 11.74-18.362 11.74-11.138 0-17.359-8.2279-17.359-17.258v-60.806h-32.309v65.121c0 24.182 17.058 41.24 40.738 41.24 10.837 0 21.071-5.2177 27.292-13.145z"/>
  </g>
  <g transform="matrix(0.451982, 0, 0, 0.442064, -13.884098, 312.309753)" fill="#31343b" aria-label="Study" style="">
    <path d="m8.4286-20.068c12.643 14.048 31.507 22.476 52.779 22.476 32.309 0 52.578-18.663 52.578-43.849 0-22.476-14.75-37.226-44.752-44.15-18.463-4.2143-24.082-10.034-24.082-17.861 0-6.9235 6.8231-11.94 15.653-11.94 10.335 0 20.168 5.7194 29.099 13.446l16.857-23.078c-12.041-11.037-28.697-17.861-47.36-17.861-27.895 0-47.762 17.861-47.762 42.042 0 21.573 15.954 36.122 42.544 41.842 21.172 4.5153 26.289 11.238 26.289 19.165 0 8.5289-8.4286 14.349-19.165 14.349-12.743 0-25.386-7.0238-34.818-16.857z" fill="#31343b"/>
    <path d="m167.22-76.058h22.777v-27.895h-22.777v-30.102l-32.309 2.8095v27.292h-15.051v27.895h15.051v41.741c0 23.279 14.148 36.724 38.531 36.724 6.6224 0 13.646-0.80272 17.76-2.1071v-26.389c-2.8095 0.40136-7.2245 0.60204-10.636 0.60204-9.432 0-13.345-3.9133-13.345-12.141z"/>
    <path d="m272.66 0h32.309v-103.95h-32.309v66.325c-3.6122 6.1207-10.837 11.74-18.362 11.74-11.138 0-17.359-8.2279-17.359-17.258v-60.806h-32.309v65.121c0 24.182 17.058 41.24 40.738 41.24 10.837 0 21.071-5.2177 27.292-13.145z"/>
    <path d="m379.77-25.888c-14.951 0-26.189-11.338-26.189-26.088s11.238-26.088 26.189-26.088c10.636 0 19.566 5.9201 23.68 14.65v22.978c-4.1139 8.7296-13.044 14.549-23.68 14.549zm23.68 25.888h31.707v-146.5h-31.707v52.177c-8.0272-7.6258-19.366-12.041-31.306-12.041-28.898 0-50.571 24.282-50.571 54.384s21.673 54.384 50.571 54.384c11.94 0 23.279-4.415 31.306-12.041z"/>
    <path d="m500.83 46.558 53.782-150.51h-33.714l-19.366 62.913-19.165-62.913h-33.714l37.126 103.95-18.764 46.558z"/>
  </g>
</svg>