<svg id="svg" version="1.1" xmlns="http://www.w3.org/2000/svg" xmlns:xlink="http://www.w3.org/1999/xlink" width="400" height="404" viewBox="0, 0, 400,404"><g id="svgg"><path id="path0" d="M190.661 5.417 C 189.716 8.396,188.636 11.808,188.261 13.000 C 187.885 14.192,187.223 16.188,186.789 17.437 C 186.355 18.685,186.000 20.042,186.000 20.453 C 186.000 20.864,185.864 21.343,185.697 21.517 C 185.531 21.691,185.016 23.078,184.553 24.600 L 183.711 27.366 186.641 27.291 L 189.572 27.216 190.286 24.931 C 190.679 23.673,191.000 22.425,191.000 22.156 C 191.000 21.654,192.121 21.567,198.158 21.603 L 200.483 21.617 201.359 24.225 L 202.236 26.833 205.178 26.746 C 206.796 26.697,208.165 26.613,208.219 26.558 C 208.302 26.476,200.132 3.871,198.952 0.917 C 198.589 0.009,198.557 -0.000,195.482 -0.000 L 192.379 -0.000 190.661 5.417 M215.032 4.240 C 214.807 6.400,214.567 8.542,214.497 9.000 C 214.427 9.458,214.287 10.583,214.186 11.500 C 214.086 12.417,213.707 15.567,213.345 18.500 C 212.983 21.433,212.611 24.541,212.518 25.406 L 212.349 26.979 213.591 27.290 C 214.274 27.461,215.808 27.699,217.000 27.819 C 218.192 27.939,219.617 28.099,220.167 28.173 C 220.717 28.248,222.592 28.461,224.333 28.646 C 226.075 28.831,228.188 29.079,229.028 29.196 C 230.197 29.359,230.558 29.302,230.565 28.954 C 230.571 28.704,230.682 27.571,230.812 26.436 L 231.049 24.373 229.941 24.201 C 229.332 24.106,227.890 23.952,226.736 23.859 C 225.583 23.766,224.533 23.625,224.403 23.547 C 224.273 23.469,222.973 23.303,221.514 23.179 C 218.805 22.948,218.214 22.796,218.464 22.392 C 218.597 22.176,219.399 15.844,219.844 11.500 C 219.956 10.400,220.173 8.600,220.326 7.500 C 220.479 6.400,220.606 5.275,220.610 5.000 C 220.614 4.725,220.723 3.716,220.854 2.757 C 221.130 0.732,221.224 0.802,217.803 0.513 L 215.440 0.314 215.032 4.240 M163.859 2.707 C 163.140 2.875,162.353 3.179,162.109 3.381 C 161.866 3.583,161.667 3.645,161.667 3.518 C 161.667 3.296,160.151 4.285,158.891 5.329 C 155.586 8.066,154.640 15.335,156.722 22.000 C 158.964 29.182,166.346 32.478,173.167 29.344 C 176.067 28.012,178.430 24.308,178.856 20.431 L 179.083 18.362 177.791 18.566 C 173.971 19.170,173.600 19.374,173.162 21.111 C 171.774 26.611,165.729 26.927,162.856 21.649 C 161.035 18.303,160.855 11.869,162.524 9.781 C 165.130 6.520,169.900 6.640,171.389 10.004 C 171.886 11.127,171.966 11.141,174.915 10.628 C 177.475 10.182,177.728 9.765,176.661 7.754 C 174.390 3.474,169.244 1.444,163.859 2.707 M196.000 7.514 C 196.000 7.797,196.600 9.873,197.333 12.127 C 198.067 14.381,198.667 16.324,198.667 16.446 C 198.667 16.567,197.301 16.667,195.631 16.667 C 192.869 16.667,192.617 16.614,192.839 16.083 C 193.067 15.538,193.442 14.258,194.891 9.083 C 195.436 7.138,196.000 6.340,196.000 7.514 M251.063 16.422 C 247.884 26.075,247.197 29.663,248.313 30.779 C 248.507 30.974,248.667 31.403,248.667 31.733 C 248.667 32.063,248.807 32.333,248.978 32.333 C 249.149 32.333,249.381 32.626,249.495 32.984 C 250.161 35.082,255.956 37.460,260.237 37.391 C 262.984 37.347,267.944 33.924,267.142 32.626 C 267.042 32.465,267.120 32.333,267.314 32.333 C 267.508 32.333,267.636 32.221,267.598 32.083 C 267.560 31.946,267.788 31.347,268.105 30.753 C 268.421 30.160,268.696 29.560,268.716 29.420 C 268.735 29.281,268.805 29.017,268.871 28.833 C 268.936 28.650,269.758 26.175,270.696 23.333 C 271.635 20.492,272.766 17.202,273.209 16.024 C 273.652 14.846,273.899 13.782,273.757 13.661 C 273.469 13.414,269.153 12.000,268.688 12.000 C 268.524 12.000,267.165 15.712,265.668 20.250 C 261.668 32.373,260.355 33.912,255.999 31.588 C 252.887 29.926,252.950 28.811,256.804 17.356 C 258.373 12.693,259.621 8.847,259.578 8.808 C 259.535 8.769,258.525 8.434,257.333 8.064 C 256.142 7.694,254.942 7.303,254.667 7.194 C 254.268 7.035,253.540 8.898,251.063 16.422 M144.500 7.579 C 144.133 7.671,143.458 7.890,143.000 8.064 C 142.542 8.238,142.167 8.344,142.167 8.300 C 142.167 8.257,141.838 8.396,141.437 8.611 C 140.745 8.982,140.731 9.074,141.154 10.417 C 141.400 11.196,141.906 12.883,142.280 14.167 C 143.382 17.955,144.635 22.186,147.485 31.750 C 147.964 33.354,148.495 34.667,148.667 34.667 C 148.838 34.667,150.019 34.342,151.290 33.944 C 153.990 33.101,153.919 33.626,152.126 27.745 C 151.470 25.593,150.735 23.083,150.492 22.167 C 150.249 21.250,149.836 19.825,149.573 19.000 C 149.311 18.175,148.906 16.825,148.673 16.000 C 148.440 15.175,147.964 13.624,147.615 12.553 C 147.266 11.482,146.822 9.870,146.629 8.970 C 146.269 7.292,146.093 7.177,144.500 7.579 M125.500 14.318 C 124.950 14.455,123.900 14.836,123.167 15.166 C 122.433 15.495,121.683 15.808,121.500 15.860 C 120.629 16.110,114.456 18.765,114.136 19.029 C 113.936 19.193,113.673 19.229,113.553 19.108 C 113.228 18.783,113.287 19.258,113.654 19.921 C 113.994 20.534,115.406 23.961,116.212 26.128 C 116.477 26.839,116.988 28.030,117.347 28.774 C 117.706 29.517,118.000 30.245,118.000 30.391 C 118.000 30.537,118.450 31.585,119.000 32.720 C 119.550 33.856,120.000 34.904,120.000 35.049 C 120.000 35.195,120.359 36.106,120.797 37.073 C 121.235 38.041,122.083 40.033,122.682 41.500 C 123.280 42.967,123.803 44.211,123.844 44.264 C 123.884 44.318,124.799 43.972,125.875 43.495 C 126.952 43.019,128.133 42.508,128.500 42.360 C 138.636 38.281,140.705 36.014,140.238 29.500 C 139.513 19.392,132.816 12.493,125.500 14.318 M283.062 18.094 C 282.754 18.467,280.990 21.797,275.960 31.500 C 273.573 36.105,270.667 41.777,270.667 41.831 C 270.667 41.988,275.347 44.092,275.442 43.978 C 275.508 43.899,276.022 42.933,276.583 41.833 C 277.766 39.518,280.261 34.703,282.330 30.746 C 283.122 29.231,283.805 28.031,283.849 28.079 C 283.893 28.127,284.028 32.817,284.149 38.500 C 284.271 44.227,284.510 48.974,284.684 49.150 C 284.884 49.350,285.002 49.350,285.005 49.150 C 285.008 48.965,285.112 48.971,285.255 49.167 C 285.390 49.350,286.318 49.929,287.317 50.454 L 289.133 51.408 289.738 50.662 C 290.070 50.251,290.435 49.522,290.549 49.041 C 290.663 48.560,290.940 47.942,291.166 47.667 C 291.572 47.170,294.252 42.086,299.156 32.512 C 301.556 27.826,301.674 27.496,301.106 27.075 C 300.202 26.407,297.261 24.962,297.110 25.112 C 296.916 25.307,293.883 31.015,291.946 34.833 C 291.016 36.667,289.900 38.767,289.466 39.500 L 288.678 40.833 288.668 39.167 C 288.600 26.943,288.287 20.478,287.741 20.056 C 286.219 18.881,283.391 17.695,283.062 18.094 M129.949 20.069 C 130.252 20.306,130.691 20.755,130.924 21.067 C 131.157 21.379,131.532 21.829,131.757 22.067 C 133.005 23.387,134.667 28.346,134.667 30.750 C 134.667 33.533,133.316 35.024,129.321 36.649 L 127.027 37.583 125.973 35.041 C 125.393 33.644,124.652 31.900,124.327 31.167 C 124.002 30.433,123.208 28.558,122.562 27.000 C 120.055 20.950,120.179 21.301,120.583 21.386 C 120.721 21.415,121.133 21.323,121.500 21.180 C 127.457 18.868,128.274 18.760,129.949 20.069 M101.667 25.571 C 100.292 26.429,99.075 27.265,98.963 27.428 C 98.851 27.590,98.656 27.698,98.530 27.668 C 98.306 27.613,90.437 32.257,89.224 33.158 C 88.633 33.598,89.009 34.799,90.010 35.667 C 90.116 35.758,90.544 36.508,90.962 37.333 C 91.677 38.745,94.280 42.970,94.659 43.333 C 94.755 43.425,95.275 44.325,95.816 45.333 C 96.356 46.342,97.556 48.393,98.482 49.891 C 99.409 51.390,100.726 53.533,101.410 54.653 L 102.653 56.691 103.576 56.169 C 104.084 55.881,104.950 55.353,105.500 54.994 C 106.050 54.634,106.725 54.235,107.000 54.106 C 107.407 53.916,111.158 51.645,114.488 49.574 C 114.848 49.350,116.075 48.597,117.215 47.901 L 119.287 46.636 118.100 44.645 C 116.592 42.113,116.768 42.171,114.643 43.497 C 113.648 44.118,112.196 44.962,111.417 45.372 C 110.638 45.782,110.000 46.231,110.000 46.370 C 110.000 46.508,109.662 46.724,109.250 46.850 C 108.837 46.975,108.023 47.435,107.439 47.872 C 106.855 48.309,106.236 48.667,106.063 48.667 C 105.890 48.667,105.560 48.893,105.330 49.171 C 104.975 49.599,104.643 49.234,103.125 46.754 C 101.439 43.998,101.376 43.816,102.002 43.532 C 102.368 43.367,102.667 43.104,102.667 42.949 C 102.667 42.794,102.858 42.667,103.093 42.667 C 103.447 42.667,105.469 41.432,109.524 38.740 C 109.878 38.506,110.419 38.229,110.727 38.124 C 111.404 37.895,111.762 37.099,111.314 36.821 C 111.136 36.711,110.783 36.144,110.531 35.561 C 109.660 33.551,109.151 33.097,108.447 33.704 C 108.109 33.994,107.597 34.315,107.307 34.417 C 107.018 34.519,105.893 35.177,104.807 35.881 C 102.405 37.437,101.651 37.900,101.000 38.218 C 100.725 38.353,100.294 38.666,100.043 38.915 C 99.791 39.163,99.354 39.322,99.071 39.267 C 98.422 39.141,95.798 34.901,96.271 34.743 C 96.462 34.679,98.168 33.668,100.060 32.497 C 101.952 31.326,103.987 30.117,104.583 29.812 C 105.179 29.507,105.667 29.141,105.667 28.998 C 105.667 28.856,106.036 28.646,106.487 28.533 L 107.307 28.327 106.266 26.414 C 104.686 23.512,104.900 23.551,101.667 25.571 M305.027 37.489 C 302.996 40.510,301.333 43.135,301.333 43.324 C 301.333 43.512,301.183 43.667,301.000 43.667 C 300.817 43.667,300.667 43.879,300.667 44.139 C 300.667 44.399,300.554 44.661,300.417 44.722 C 300.170 44.832,296.228 50.552,294.577 53.197 L 293.726 54.560 296.023 56.112 L 298.320 57.664 298.901 56.749 C 299.221 56.245,300.949 53.704,302.741 51.102 C 304.534 48.500,306.000 46.225,306.000 46.047 C 306.000 45.868,306.125 45.672,306.277 45.611 C 306.550 45.501,312.143 37.176,312.884 35.776 C 313.268 35.051,312.738 34.555,309.116 32.249 C 308.854 32.082,307.479 33.844,305.027 37.489 M314.727 49.083 C 312.489 54.629,310.660 59.429,310.662 59.750 C 310.665 60.071,310.541 60.333,310.387 60.333 C 310.233 60.333,309.900 60.971,309.647 61.750 C 309.395 62.529,309.004 63.530,308.779 63.973 C 308.382 64.756,308.678 65.998,309.262 66.002 C 309.393 66.002,310.071 66.527,310.769 67.168 C 312.369 68.639,312.111 68.679,315.631 66.417 C 317.272 65.362,319.465 63.975,320.506 63.333 C 321.547 62.692,322.646 62.014,322.949 61.827 C 323.463 61.509,324.129 61.088,328.000 58.635 C 328.825 58.112,329.681 57.530,329.903 57.342 C 330.124 57.154,330.462 57.000,330.653 57.000 C 330.844 57.000,331.000 56.850,331.000 56.667 C 331.000 56.483,331.167 56.333,331.372 56.333 C 331.576 56.333,332.791 55.637,334.071 54.786 L 336.398 53.239 334.616 51.629 C 332.316 49.552,331.883 49.423,330.568 50.424 C 329.980 50.871,326.950 53.005,323.833 55.167 C 320.717 57.328,318.092 59.198,318.000 59.323 C 317.908 59.447,317.608 59.648,317.333 59.770 C 317.058 59.891,316.482 60.245,316.054 60.556 L 315.274 61.121 315.758 59.977 C 317.048 56.928,320.281 49.769,321.900 46.375 L 323.709 42.584 322.605 41.625 C 321.997 41.097,321.087 40.408,320.583 40.094 C 320.079 39.780,319.667 39.405,319.667 39.261 C 319.667 37.565,318.194 40.493,314.727 49.083 M79.610 39.623 C 79.497 39.916,77.397 41.765,75.252 43.463 L 74.035 44.425 74.859 45.963 C 75.311 46.808,76.671 49.375,77.880 51.667 C 79.088 53.958,80.172 55.908,80.289 56.000 C 80.405 56.092,80.529 56.317,80.565 56.500 C 80.600 56.683,81.371 58.221,82.279 59.917 C 83.186 61.612,83.794 63.000,83.631 63.000 C 83.467 63.000,83.333 62.866,83.333 62.701 C 83.333 62.447,79.708 59.610,77.325 58.000 C 76.918 57.725,76.416 57.342,76.209 57.150 C 76.002 56.957,74.933 56.143,73.833 55.340 C 72.733 54.537,71.758 53.787,71.667 53.674 C 71.575 53.561,70.557 52.750,69.404 51.872 L 67.307 50.274 66.237 51.108 C 65.648 51.567,64.701 52.368,64.133 52.888 C 63.564 53.408,62.701 54.170,62.216 54.581 C 61.135 55.497,61.127 55.680,62.120 56.751 C 62.552 57.218,64.714 59.752,66.924 62.383 C 69.135 65.014,71.456 67.721,72.083 68.398 C 72.710 69.076,73.807 70.351,74.521 71.232 C 75.234 72.113,75.980 72.983,76.178 73.167 C 76.376 73.350,76.950 74.062,77.453 74.750 C 78.512 76.197,79.055 76.077,81.419 73.867 L 82.672 72.696 81.586 71.431 C 80.989 70.736,80.125 69.761,79.667 69.265 C 79.208 68.770,78.458 67.900,78.000 67.332 C 77.542 66.765,76.942 66.058,76.667 65.762 C 76.392 65.466,75.848 64.795,75.459 64.272 C 75.071 63.748,73.977 62.460,73.030 61.410 C 72.083 60.359,71.126 59.279,70.904 59.009 C 70.682 58.739,70.125 58.067,69.667 57.515 C 69.024 56.742,69.291 56.874,70.833 58.092 C 73.108 59.889,72.804 59.655,75.667 61.812 C 76.858 62.711,78.428 63.908,79.154 64.473 C 79.881 65.038,81.306 66.143,82.321 66.929 C 83.336 67.715,84.542 68.651,85.000 69.008 C 85.873 69.688,86.534 69.843,86.722 69.411 C 86.783 69.270,87.546 68.577,88.417 67.871 C 90.182 66.439,90.265 66.159,89.387 64.593 C 89.051 63.992,87.828 61.700,86.670 59.500 C 85.513 57.300,84.213 54.978,83.783 54.339 C 83.352 53.701,83.000 53.018,83.000 52.821 C 83.000 52.625,82.579 51.797,82.064 50.982 C 80.978 49.261,80.583 48.333,80.939 48.333 C 81.077 48.333,81.442 48.746,81.751 49.250 C 82.059 49.754,82.954 50.856,83.739 51.698 C 84.524 52.540,85.767 53.956,86.500 54.845 C 88.222 56.931,89.704 58.669,90.333 59.341 C 90.608 59.635,91.411 60.578,92.118 61.438 C 93.626 63.272,93.950 63.328,95.405 62.006 C 96.007 61.459,96.786 60.806,97.137 60.555 C 97.882 60.019,97.826 59.912,95.167 56.823 C 94.250 55.758,92.900 54.186,92.167 53.330 C 91.433 52.475,90.324 51.188,89.701 50.470 C 89.077 49.753,87.504 47.892,86.204 46.333 C 84.903 44.775,83.605 43.275,83.319 43.000 C 83.033 42.725,82.371 41.930,81.848 41.234 C 80.846 39.901,79.796 39.145,79.610 39.623 M340.654 60.170 C 339.836 60.849,338.927 61.652,338.633 61.953 C 338.340 62.254,336.921 63.550,335.481 64.833 C 330.674 69.116,327.408 72.090,324.086 75.212 L 322.005 77.167 323.371 78.667 C 326.556 82.162,329.935 85.885,331.333 87.441 C 332.158 88.358,333.326 89.619,333.928 90.243 L 335.022 91.377 336.677 89.992 C 339.229 87.855,339.426 88.462,334.443 83.128 C 332.578 81.133,330.738 79.098,330.354 78.607 L 329.655 77.714 331.078 76.400 C 331.860 75.677,332.917 74.707,333.427 74.245 L 334.354 73.404 336.260 75.423 C 337.309 76.533,338.617 77.905,339.167 78.472 C 339.717 79.039,340.692 80.139,341.333 80.917 L 342.500 82.333 344.250 80.785 C 346.424 78.862,346.431 78.952,343.914 76.333 C 342.769 75.142,341.032 73.231,340.054 72.088 L 338.275 70.009 339.054 69.023 C 339.483 68.481,339.988 68.029,340.176 68.018 C 340.365 68.008,340.736 67.700,341.000 67.333 C 341.824 66.190,342.106 66.394,346.714 71.465 C 351.528 76.762,350.790 76.519,353.615 73.734 L 354.730 72.635 353.948 71.894 C 353.518 71.486,352.661 70.556,352.043 69.826 C 351.424 69.097,349.474 66.928,347.709 65.007 C 345.944 63.086,343.969 60.934,343.321 60.224 L 342.142 58.934 340.654 60.170 M195.684 63.997 C 193.415 66.198,191.467 68.000,191.354 68.000 C 191.241 68.000,190.775 68.412,190.319 68.917 C 189.203 70.151,186.767 72.290,182.823 75.500 C 181.021 76.967,178.906 78.692,178.122 79.333 C 175.015 81.878,166.515 87.680,164.333 88.746 C 163.875 88.970,163.425 89.240,163.333 89.346 C 162.735 90.040,148.833 96.091,148.833 95.658 C 148.833 95.629,148.233 95.832,147.500 96.110 C 146.325 96.554,144.970 96.902,142.000 97.524 C 137.543 98.457,129.340 98.366,125.000 97.335 C 121.382 96.475,114.357 93.625,112.500 92.262 C 107.952 88.926,105.090 86.651,103.372 85.008 L 101.244 82.972 99.205 85.084 C 98.084 86.246,95.908 88.539,94.369 90.181 C 90.834 93.953,88.079 96.880,81.970 103.349 C 79.296 106.182,76.640 109.025,76.069 109.667 C 75.498 110.308,73.757 112.175,72.201 113.814 L 69.371 116.794 69.924 117.730 C 70.228 118.245,70.595 118.667,70.739 118.667 C 70.882 118.667,71.000 118.804,71.000 118.971 C 71.000 119.138,71.525 120.072,72.167 121.047 C 72.808 122.021,73.334 122.972,73.335 123.159 C 73.337 123.347,73.577 123.950,73.869 124.500 C 74.162 125.050,74.626 126.250,74.901 127.167 C 75.176 128.083,75.554 129.021,75.741 129.250 C 75.929 129.479,75.999 129.667,75.897 129.667 C 75.796 129.667,75.857 130.154,76.032 130.750 C 76.307 131.683,77.491 136.889,77.835 138.677 C 77.898 139.005,78.050 139.999,78.171 140.887 C 78.293 141.774,78.454 142.875,78.528 143.333 C 78.603 143.792,78.746 145.142,78.847 146.333 C 78.947 147.525,79.100 149.325,79.188 150.333 C 79.373 152.471,79.368 168.130,79.181 170.333 C 78.822 174.572,78.601 176.939,78.474 177.917 C 78.258 179.579,78.004 181.396,77.834 182.500 C 77.749 183.050,77.607 184.025,77.519 184.667 C 77.170 187.204,75.789 193.504,74.887 196.667 C 74.600 197.675,73.981 199.850,73.511 201.500 C 70.042 213.696,69.206 228.857,71.178 243.833 C 71.994 250.032,76.778 267.447,78.041 268.817 C 78.202 268.991,78.333 269.331,78.333 269.573 C 78.333 270.196,82.901 279.857,84.603 282.833 C 85.127 283.750,85.899 285.100,86.318 285.833 C 87.689 288.235,90.076 291.831,90.375 291.944 C 90.535 292.006,90.667 292.231,90.667 292.444 C 90.667 292.658,91.042 293.269,91.500 293.802 C 91.959 294.335,92.336 294.860,92.339 294.969 C 92.342 295.077,92.754 295.641,93.255 296.220 C 93.757 296.799,94.467 297.693,94.833 298.207 C 97.754 302.297,105.877 311.056,110.370 314.962 C 115.393 319.328,116.306 320.066,121.531 323.987 C 124.447 326.176,127.274 328.311,127.812 328.733 C 128.350 329.155,129.475 329.955,130.312 330.510 C 132.187 331.756,134.111 333.109,134.333 333.339 C 134.856 333.879,144.675 340.333,144.974 340.333 C 145.172 340.333,145.333 340.459,145.333 340.613 C 145.333 340.767,145.932 341.179,146.663 341.530 C 147.394 341.880,147.994 342.288,147.996 342.436 C 147.998 342.585,148.150 342.613,148.333 342.500 C 148.517 342.387,148.667 342.453,148.667 342.647 C 148.667 342.841,148.879 343.000,149.139 343.000 C 149.399 343.000,149.661 343.138,149.722 343.308 C 149.783 343.477,150.733 344.129,151.833 344.756 C 152.933 345.383,154.583 346.350,155.500 346.906 C 166.573 353.612,187.893 364.333,190.157 364.333 C 190.437 364.333,190.667 364.447,190.667 364.585 C 190.667 364.724,191.154 365.006,191.750 365.213 C 192.346 365.420,193.883 365.994,195.167 366.489 C 196.450 366.984,197.650 367.428,197.833 367.477 C 198.017 367.525,198.599 367.741,199.127 367.957 C 200.195 368.394,200.674 368.291,203.333 367.058 C 204.342 366.590,205.337 366.176,205.546 366.139 C 205.900 366.075,207.647 365.292,212.500 363.022 C 213.600 362.508,214.987 361.899,215.583 361.670 C 216.179 361.440,216.667 361.121,216.667 360.960 C 216.667 360.798,216.892 360.667,217.167 360.667 C 217.825 360.667,233.467 352.722,233.611 352.314 C 233.672 352.141,233.972 351.997,234.278 351.993 C 234.583 351.989,235.208 351.692,235.667 351.333 C 236.125 350.975,236.617 350.678,236.760 350.674 C 237.205 350.661,245.819 345.611,246.078 345.211 C 246.213 345.003,246.325 344.942,246.328 345.074 C 246.331 345.206,247.845 344.381,249.693 343.241 C 251.540 342.100,253.528 340.877,254.109 340.523 C 257.111 338.696,268.329 331.169,271.759 328.681 C 273.918 327.115,276.168 325.489,276.759 325.068 C 277.350 324.647,278.308 323.860,278.888 323.318 C 279.468 322.776,280.068 322.331,280.221 322.328 C 280.375 322.325,280.966 321.913,281.536 321.411 C 282.106 320.910,283.073 320.125,283.684 319.667 C 288.841 315.803,301.667 303.485,301.667 302.397 C 301.667 302.191,301.935 301.880,302.263 301.704 C 302.591 301.529,303.528 300.533,304.346 299.491 C 305.164 298.448,305.983 297.421,306.167 297.206 C 307.164 296.041,308.667 294.011,308.667 293.829 C 308.667 293.714,308.854 293.410,309.083 293.154 C 309.980 292.155,310.333 291.687,310.333 291.500 C 310.333 291.393,310.609 291.009,310.947 290.647 C 311.284 290.285,311.765 289.579,312.015 289.078 C 312.265 288.577,312.719 287.867,313.025 287.500 C 314.365 285.890,320.940 273.667,320.466 273.667 C 320.367 273.667,320.521 273.431,320.810 273.143 C 321.098 272.855,321.333 272.390,321.333 272.111 C 321.333 271.832,321.545 271.205,321.804 270.718 C 323.068 268.343,326.342 259.066,326.789 256.589 C 326.880 256.088,327.026 255.561,327.115 255.417 C 327.503 254.789,329.036 246.651,329.649 241.963 C 330.856 232.733,330.726 221.895,329.309 213.667 C 328.713 210.205,328.640 209.832,328.428 209.167 C 328.311 208.800,328.180 208.275,328.136 208.000 C 327.889 206.459,327.544 205.198,326.629 202.500 C 326.070 200.850,325.489 199.200,325.340 198.833 C 324.748 197.384,324.265 196.020,324.286 195.852 C 324.297 195.755,324.076 195.036,323.793 194.255 C 323.248 192.747,321.831 187.511,321.514 185.833 C 321.410 185.283,321.240 184.327,321.135 183.708 C 321.031 183.089,320.883 182.264,320.807 181.874 C 320.683 181.246,320.557 180.384,320.144 177.341 C 319.128 169.864,319.333 151.371,320.514 144.000 C 321.242 139.460,322.605 133.171,323.332 131.000 C 325.228 125.335,326.369 122.768,328.403 119.593 C 330.149 116.868,330.152 116.815,328.633 115.167 C 328.126 114.617,327.163 113.567,326.493 112.833 C 325.270 111.495,318.288 104.064,314.441 100.005 C 313.308 98.811,312.090 97.495,311.733 97.081 C 311.185 96.445,307.394 92.420,300.303 84.946 C 298.434 82.976,298.127 82.960,296.440 84.750 C 291.999 89.461,285.187 93.852,278.833 96.099 C 268.449 99.770,255.378 98.543,243.333 92.765 C 235.947 89.221,236.079 89.290,233.423 87.577 C 232.648 87.076,231.941 86.667,231.853 86.667 C 231.708 86.667,229.887 85.416,224.346 81.512 C 223.344 80.806,222.146 79.877,221.683 79.448 C 221.219 79.018,220.659 78.667,220.437 78.667 C 220.215 78.667,219.913 78.455,219.767 78.196 C 219.620 77.937,218.678 77.075,217.673 76.279 C 216.668 75.484,215.607 74.608,215.315 74.333 C 215.023 74.058,213.820 73.014,212.642 72.012 C 210.724 70.382,208.231 68.056,201.821 61.920 L 199.809 59.993 195.684 63.997 M44.863 73.583 C 43.438 75.375,42.996 76.326,43.583 76.339 C 43.721 76.342,44.306 76.754,44.884 77.255 C 45.983 78.208,46.966 79.014,50.833 82.129 C 52.117 83.163,53.533 84.322,53.981 84.703 C 54.429 85.085,55.329 85.790,55.981 86.270 C 56.633 86.749,57.411 87.372,57.709 87.654 C 58.007 87.936,58.607 88.453,59.042 88.804 C 59.477 89.154,60.679 90.167,61.712 91.054 C 64.063 93.073,64.322 93.064,65.877 90.917 C 66.574 89.954,67.300 89.051,67.489 88.910 C 67.708 88.748,67.590 88.471,67.167 88.154 C 66.800 87.879,66.201 87.394,65.836 87.077 C 64.908 86.272,63.303 84.984,61.999 84.000 C 61.391 83.542,60.731 83.017,60.530 82.833 C 59.865 82.224,57.799 80.513,56.505 79.500 C 55.803 78.950,54.614 77.964,53.864 77.309 C 53.114 76.654,51.422 75.268,50.105 74.229 C 48.787 73.189,47.616 72.188,47.502 72.003 C 47.065 71.296,46.335 71.733,44.863 73.583 M202.039 76.000 C 202.526 76.458,203.729 77.602,204.712 78.541 C 212.551 86.028,224.819 95.009,233.743 99.795 C 236.168 101.094,243.231 104.275,244.167 104.488 C 244.350 104.530,244.875 104.715,245.333 104.900 C 245.792 105.085,247.067 105.491,248.167 105.803 C 249.267 106.115,250.617 106.505,251.167 106.670 C 253.981 107.513,259.840 108.268,263.833 108.302 C 271.503 108.368,277.538 107.082,284.248 103.955 C 286.878 102.730,291.711 99.775,291.944 99.250 C 292.006 99.112,292.244 99.000,292.474 99.000 C 292.703 99.000,293.521 98.401,294.291 97.669 L 295.690 96.338 297.428 98.239 C 298.384 99.284,300.292 101.332,301.667 102.790 C 303.042 104.248,305.292 106.645,306.667 108.116 C 313.230 115.136,314.285 116.253,315.917 117.914 C 317.992 120.026,317.923 119.515,316.525 122.443 C 314.860 125.927,312.222 134.044,311.848 136.833 C 311.799 137.200,311.674 137.875,311.570 138.333 C 311.356 139.281,310.855 142.148,310.347 145.333 C 307.707 161.883,309.933 189.549,314.703 199.479 C 315.050 200.201,315.333 201.034,315.333 201.329 C 315.333 201.625,315.469 202.009,315.634 202.183 C 316.167 202.745,318.256 210.713,318.950 214.833 C 320.654 224.947,320.422 236.747,318.326 246.667 C 318.151 247.492,317.934 248.542,317.844 249.000 C 317.053 252.991,315.680 257.514,313.292 264.000 C 312.916 265.022,310.696 269.948,309.538 272.333 C 307.622 276.276,299.997 288.384,298.463 289.918 C 298.203 290.178,297.580 290.940,297.078 291.610 C 294.265 295.372,287.382 302.546,282.313 307.000 C 281.165 308.008,279.743 309.283,279.152 309.833 C 278.562 310.383,277.751 311.058,277.350 311.333 C 276.950 311.608,274.870 313.159,272.728 314.780 C 267.291 318.893,266.991 319.123,266.555 319.516 C 266.341 319.708,265.267 320.453,264.167 321.171 C 263.067 321.889,262.092 322.559,262.000 322.660 C 261.840 322.836,255.502 327.148,254.396 327.833 C 254.101 328.017,252.697 328.917,251.276 329.833 C 246.919 332.645,244.904 333.890,243.167 334.846 C 242.250 335.350,241.102 336.041,240.615 336.381 C 240.129 336.721,239.653 337.000,239.558 337.000 C 239.463 337.000,238.062 337.769,236.443 338.708 C 234.824 339.647,232.525 340.944,231.333 341.588 C 230.142 342.233,228.164 343.326,226.939 344.018 C 225.714 344.709,224.401 345.373,224.022 345.493 C 223.643 345.613,223.333 345.860,223.333 346.042 C 223.333 346.224,223.183 346.280,223.000 346.167 C 222.817 346.053,222.667 346.120,222.667 346.314 C 222.667 346.508,222.476 346.667,222.244 346.667 C 221.646 346.667,215.551 349.690,215.255 350.133 C 215.120 350.335,215.008 350.395,215.005 350.267 C 215.002 350.139,214.137 350.454,213.083 350.968 C 212.029 351.482,210.042 352.408,208.667 353.025 C 207.292 353.642,206.056 354.302,205.922 354.490 C 205.787 354.679,205.675 354.732,205.672 354.609 C 205.669 354.485,204.448 354.912,202.959 355.557 C 199.992 356.843,199.203 356.814,195.833 355.292 C 195.100 354.960,193.450 354.253,192.167 353.719 C 190.883 353.185,188.858 352.322,187.667 351.801 C 184.752 350.527,170.848 343.492,167.412 341.554 C 165.897 340.699,164.510 340.000,164.329 340.000 C 164.148 340.000,163.999 339.887,163.999 339.750 C 163.998 339.612,163.136 339.050,162.082 338.500 C 161.029 337.950,160.117 337.387,160.056 337.250 C 159.994 337.112,159.743 337.000,159.496 337.000 C 159.249 337.000,158.849 336.806,158.607 336.568 C 158.365 336.331,156.217 334.951,153.833 333.501 C 148.945 330.527,143.491 326.888,136.500 321.936 C 134.595 320.587,134.044 320.189,132.116 318.767 C 131.172 318.070,130.066 317.275,129.659 317.000 C 129.252 316.725,128.749 316.345,128.542 316.157 C 128.336 315.968,127.042 314.952,125.667 313.899 C 117.146 307.374,108.771 299.181,103.333 292.050 C 102.875 291.449,102.090 290.479,101.589 289.895 C 101.087 289.311,100.675 288.699,100.672 288.534 C 100.669 288.370,100.169 287.620,99.561 286.868 C 98.952 286.115,97.940 284.627,97.311 283.560 C 96.681 282.493,95.667 280.768,95.056 279.726 C 91.984 274.487,86.667 263.166,86.667 261.863 C 86.667 261.751,86.382 261.024,86.034 260.246 C 85.686 259.469,85.245 258.233,85.054 257.500 C 84.863 256.767,84.274 254.517,83.744 252.500 C 82.588 248.097,82.081 245.895,81.861 244.333 C 81.771 243.692,81.448 241.367,81.142 239.167 C 80.037 231.207,80.321 220.028,81.836 211.810 C 82.109 210.330,82.399 208.680,82.480 208.143 C 82.561 207.606,83.101 205.517,83.680 203.500 C 85.020 198.833,86.873 191.516,87.098 190.000 C 87.193 189.358,87.503 187.408,87.787 185.667 C 88.071 183.925,88.389 181.675,88.494 180.667 C 88.599 179.658,88.749 178.308,88.827 177.667 C 89.754 170.025,89.738 155.685,88.792 145.833 C 88.456 142.328,87.275 135.636,86.469 132.667 C 86.196 131.658,85.895 130.469,85.802 130.023 C 85.708 129.578,85.532 129.053,85.409 128.857 C 85.286 128.661,85.141 128.210,85.086 127.855 C 85.031 127.501,84.449 125.926,83.793 124.355 C 83.137 122.785,82.439 121.103,82.240 120.618 C 81.911 119.813,82.008 119.609,83.357 118.275 C 84.805 116.842,86.484 115.056,93.167 107.841 C 95.000 105.861,97.325 103.397,98.333 102.364 C 99.342 101.331,100.776 99.814,101.521 98.993 C 103.799 96.483,103.829 96.470,105.077 97.470 C 105.676 97.950,106.321 98.466,106.509 98.615 C 106.697 98.765,107.297 99.171,107.842 99.519 C 108.387 99.867,108.908 100.245,109.000 100.359 C 109.339 100.780,114.549 103.635,116.000 104.194 C 116.825 104.512,117.650 104.879,117.833 105.009 C 118.180 105.256,120.376 106.009,120.667 105.981 C 120.758 105.972,121.380 106.193,122.047 106.472 C 127.888 108.912,148.156 108.562,150.817 105.975 C 150.991 105.805,151.410 105.667,151.748 105.667 C 153.850 105.667,169.255 98.545,171.062 96.738 C 171.284 96.516,171.587 96.333,171.735 96.333 C 172.078 96.333,177.251 92.851,179.728 90.952 C 180.770 90.153,182.457 88.905,183.478 88.177 C 184.498 87.449,185.333 86.769,185.333 86.665 C 185.333 86.562,185.746 86.227,186.250 85.922 C 186.754 85.617,187.716 84.872,188.387 84.267 C 189.059 83.662,190.401 82.492,191.369 81.667 C 193.179 80.125,196.951 76.677,198.730 74.938 C 199.845 73.848,199.700 73.801,202.039 76.000 M358.833 81.866 C 357.917 82.490,356.902 83.225,356.580 83.500 C 356.257 83.775,355.909 84.000,355.806 84.000 C 355.507 84.000,352.511 86.102,352.389 86.397 C 352.328 86.545,352.065 86.667,351.806 86.667 C 351.546 86.667,351.333 86.817,351.333 87.000 C 351.333 87.183,351.108 87.333,350.833 87.333 C 350.558 87.333,350.333 87.483,350.333 87.667 C 350.333 87.850,350.108 88.000,349.833 88.000 C 349.558 88.000,349.333 88.122,349.333 88.272 C 349.333 88.422,348.697 88.902,347.919 89.339 C 346.378 90.205,339.411 94.870,338.770 95.465 C 338.467 95.745,338.729 96.365,339.866 98.061 L 341.360 100.289 345.543 97.478 C 350.441 94.186,349.992 94.297,351.204 96.083 C 351.732 96.862,352.270 97.579,352.399 97.676 C 352.762 97.948,353.984 100.771,353.993 101.354 C 354.005 102.205,353.175 102.961,349.524 105.425 C 347.208 106.987,346.400 108.115,347.097 108.812 C 347.386 109.101,347.718 109.636,347.834 110.002 C 347.950 110.368,348.185 110.667,348.356 110.667 C 348.527 110.667,348.667 110.854,348.668 111.083 C 348.669 111.313,349.032 111.950,349.475 112.500 L 350.280 113.500 350.657 112.500 C 351.065 111.418,351.569 110.945,354.247 109.126 C 357.677 106.796,359.373 104.147,358.450 102.563 C 358.323 102.345,358.558 102.465,358.974 102.830 C 359.548 103.334,360.180 103.486,361.614 103.465 C 366.694 103.390,370.488 98.553,369.109 93.909 C 368.618 92.255,361.260 80.632,360.747 80.699 C 360.611 80.717,359.750 81.242,358.833 81.866 M33.333 89.223 C 30.858 93.007,28.785 96.305,28.726 96.552 C 28.666 96.798,28.495 97.000,28.345 97.000 C 26.794 97.000,28.093 98.291,32.590 101.219 C 35.290 102.978,38.550 105.110,39.833 105.957 C 41.117 106.805,42.245 107.499,42.341 107.499 C 42.437 107.500,42.878 107.837,43.321 108.250 C 43.763 108.662,44.240 109.000,44.380 109.000 C 44.520 109.000,45.600 109.675,46.780 110.500 C 47.961 111.325,49.093 112.000,49.296 112.000 C 49.500 112.000,49.667 112.161,49.667 112.358 C 49.667 112.555,49.929 112.665,50.250 112.603 C 50.571 112.541,50.793 112.377,50.743 112.239 C 50.693 112.100,51.030 111.579,51.493 111.080 C 51.955 110.581,52.333 110.053,52.333 109.906 C 52.333 109.759,52.485 109.457,52.671 109.236 C 53.345 108.433,59.966 98.333,59.818 98.333 C 59.735 98.333,59.967 98.033,60.333 97.667 C 60.700 97.300,61.000 96.887,61.000 96.749 C 61.000 96.476,57.163 93.997,56.752 94.004 C 56.442 94.009,55.000 96.196,55.000 96.662 C 55.000 96.848,54.882 97.000,54.739 97.000 C 54.495 97.000,53.188 98.955,53.173 99.341 C 53.170 99.437,52.867 99.840,52.500 100.235 C 52.133 100.631,51.534 101.528,51.167 102.228 C 50.801 102.927,50.317 103.695,50.091 103.933 C 49.866 104.171,49.553 104.596,49.396 104.877 C 49.158 105.302,48.661 105.089,46.443 103.610 C 43.579 101.702,43.532 101.588,44.885 99.802 C 45.315 99.235,45.667 98.610,45.667 98.413 C 45.667 98.216,45.779 98.006,45.917 97.944 C 46.296 97.776,47.667 95.741,47.667 95.347 C 47.667 95.156,47.817 95.000,48.000 95.000 C 48.183 95.000,48.333 94.834,48.333 94.631 C 48.333 94.429,48.802 93.671,49.374 92.948 C 50.442 91.601,50.198 90.714,48.750 90.677 C 48.521 90.671,48.332 90.554,48.331 90.417 C 48.328 90.053,46.322 88.968,46.010 89.160 C 45.865 89.250,44.340 91.499,42.623 94.158 C 39.312 99.284,39.321 99.274,38.548 98.500 C 38.273 98.225,37.887 98.000,37.690 98.000 C 37.494 98.000,37.333 97.878,37.333 97.728 C 37.333 97.579,36.804 97.204,36.158 96.896 L 34.982 96.335 35.537 95.251 C 35.843 94.655,36.197 94.092,36.324 94.000 C 36.450 93.908,37.277 92.708,38.160 91.333 C 39.043 89.958,40.193 88.188,40.716 87.400 C 41.239 86.612,41.667 85.824,41.667 85.650 C 41.667 85.476,41.854 85.328,42.083 85.321 C 42.618 85.306,40.639 83.671,40.083 83.668 C 39.854 83.667,39.667 83.541,39.667 83.387 C 39.667 83.169,38.227 82.314,37.901 82.338 C 37.864 82.341,35.808 85.439,33.333 89.223 M363.357 93.476 C 364.309 95.271,363.808 96.851,361.921 98.001 C 359.737 99.333,358.672 98.737,356.024 94.703 C 353.996 91.615,353.940 91.849,357.233 89.687 L 359.772 88.020 361.172 90.007 C 361.941 91.100,362.925 92.661,363.357 93.476 M24.379 108.769 C 22.029 109.662,20.787 111.141,18.644 115.596 C 17.522 117.926,16.244 120.529,15.802 121.378 C 14.736 123.431,14.752 123.493,16.583 124.340 C 21.650 126.686,22.707 127.188,24.743 128.223 C 25.976 128.849,27.060 129.362,27.152 129.363 C 27.244 129.364,28.035 129.688,28.910 130.084 C 29.784 130.480,30.613 130.773,30.750 130.735 C 30.887 130.697,31.000 130.817,31.000 131.000 C 31.000 131.183,31.158 131.333,31.352 131.333 C 31.546 131.333,32.596 131.776,33.685 132.316 C 34.775 132.857,35.667 133.209,35.667 133.098 C 35.667 132.987,35.929 133.124,36.250 133.401 C 36.796 133.874,38.757 134.667,39.378 134.667 C 39.718 134.667,41.667 130.874,41.667 130.212 C 41.667 129.844,40.000 128.893,38.667 128.500 C 38.575 128.473,37.283 127.876,35.795 127.175 L 33.090 125.899 34.558 122.800 C 36.595 118.499,36.963 115.655,35.771 113.412 C 35.104 112.156,31.594 109.333,30.700 109.333 C 30.388 109.333,29.971 109.171,29.772 108.972 C 29.219 108.419,25.654 108.285,24.379 108.769 M369.998 109.086 C 365.527 111.309,364.774 113.779,366.315 121.160 C 367.370 126.213,367.254 127.346,365.590 128.206 C 361.571 130.285,357.651 121.454,361.388 118.740 C 362.036 118.269,361.953 117.872,360.591 114.942 L 359.867 113.385 358.854 113.909 C 353.778 116.534,353.371 124.438,358.010 130.306 C 361.356 134.539,367.871 134.818,371.248 130.874 C 371.659 130.393,371.918 130.000,371.823 130.000 C 371.729 130.000,371.897 129.625,372.197 129.168 C 372.836 128.192,372.604 123.179,371.799 120.574 C 371.698 120.248,371.555 119.498,371.481 118.907 C 371.407 118.317,371.255 117.411,371.142 116.895 C 370.451 113.724,374.371 112.235,376.288 114.941 C 378.175 117.602,378.235 120.589,376.433 122.139 L 375.621 122.839 376.644 124.901 C 377.206 126.035,377.667 127.121,377.667 127.315 C 377.667 127.877,378.068 127.723,379.669 126.547 C 387.966 120.456,379.149 104.537,369.998 109.086 M190.000 122.000 L 190.000 133.333 161.250 133.333 L 132.500 133.333 132.594 142.333 L 132.688 151.333 161.344 151.333 L 190.000 151.333 190.000 169.500 L 190.000 187.667 200.000 187.667 L 210.000 187.667 210.000 169.500 L 210.000 151.333 238.839 151.333 L 267.678 151.333 267.589 142.417 L 267.500 133.500 238.741 133.415 L 209.983 133.330 210.075 121.998 L 210.167 110.666 200.083 110.667 L 190.000 110.667 190.000 122.000 M28.918 114.745 C 31.676 116.122,31.679 117.341,28.942 123.189 C 28.658 123.795,23.221 121.665,22.042 120.486 C 21.860 120.305,24.226 115.393,24.746 114.873 C 25.798 113.821,26.995 113.784,28.918 114.745 M386.500 131.882 C 385.767 132.156,383.667 132.878,381.833 133.488 C 380.000 134.097,375.650 135.596,372.167 136.819 C 368.683 138.043,365.158 139.273,364.333 139.554 C 363.508 139.835,362.731 140.163,362.606 140.283 C 362.407 140.474,363.638 144.479,364.152 145.310 C 364.261 145.485,365.988 145.031,368.089 144.273 C 370.149 143.531,373.558 142.339,375.667 141.624 C 377.775 140.909,379.800 140.187,380.167 140.019 C 380.533 139.852,382.108 139.309,383.667 138.813 C 385.225 138.317,386.650 137.822,386.833 137.715 C 387.017 137.607,387.317 137.492,387.500 137.459 C 388.183 137.337,389.667 136.677,389.667 136.495 C 389.667 136.108,388.242 131.825,388.041 131.609 C 387.927 131.486,387.233 131.609,386.500 131.882 M11.641 132.250 C 11.584 132.815,11.344 133.591,10.711 135.269 C 10.229 136.546,10.153 137.078,10.439 137.182 C 10.656 137.261,11.733 137.633,12.833 138.008 C 13.933 138.384,15.883 139.049,17.167 139.487 C 18.450 139.925,21.675 141.056,24.333 142.001 C 26.992 142.945,29.317 143.758,29.500 143.808 C 29.683 143.858,30.058 143.994,30.333 144.109 C 30.608 144.225,31.915 144.680,33.236 145.122 L 35.639 145.924 36.611 143.379 C 37.679 140.584,37.678 140.582,35.500 139.940 C 34.767 139.723,34.092 139.523,34.000 139.495 C 33.908 139.467,33.383 139.256,32.833 139.026 C 32.283 138.796,30.033 138.012,27.833 137.284 C 25.633 136.555,23.533 135.826,23.167 135.663 C 22.800 135.500,21.825 135.147,21.000 134.878 C 20.175 134.610,18.020 133.852,16.210 133.195 C 12.977 132.021,11.692 131.755,11.641 132.250 M389.583 143.142 C 388.896 143.387,388.333 143.526,388.333 143.449 C 388.333 143.372,388.050 143.462,387.703 143.647 C 387.090 143.975,387.089 144.047,387.662 146.242 C 387.987 147.484,388.355 149.117,388.481 149.872 L 388.710 151.244 384.438 152.308 C 382.089 152.893,379.792 153.443,379.333 153.531 C 378.875 153.619,377.075 154.062,375.333 154.515 C 373.592 154.968,371.867 155.388,371.500 155.449 C 368.807 155.892,367.303 156.440,367.484 156.913 C 367.591 157.190,367.913 158.453,368.202 159.721 C 368.653 161.705,368.812 161.999,369.344 161.830 C 369.685 161.722,371.509 161.268,373.398 160.822 C 375.287 160.375,377.358 159.865,378.000 159.689 C 378.642 159.512,380.892 158.966,383.000 158.475 C 385.108 157.984,387.596 157.396,388.529 157.170 L 390.224 156.758 390.974 159.963 C 391.386 161.725,391.792 163.419,391.877 163.727 C 392.016 164.233,392.185 164.245,393.599 163.846 C 394.461 163.602,395.565 163.313,396.053 163.203 C 396.897 163.012,396.923 162.945,396.608 161.751 C 396.067 159.704,395.770 158.481,394.163 151.667 C 391.987 142.443,392.055 142.665,391.404 142.681 C 391.090 142.689,390.271 142.897,389.583 143.142 M29.167 149.673 C 28.067 149.810,26.117 150.018,24.833 150.135 C 23.550 150.253,22.050 150.415,21.500 150.496 C 20.950 150.576,18.100 150.890,15.167 151.194 C 12.233 151.497,9.533 151.783,9.167 151.830 C 8.800 151.877,7.886 151.934,7.136 151.957 L 5.773 152.000 5.334 153.917 C 5.093 154.971,4.865 156.058,4.827 156.333 C 4.790 156.608,4.642 157.111,4.498 157.450 C 4.354 157.790,4.375 158.165,4.544 158.284 C 5.560 158.998,8.579 160.911,9.000 161.107 C 9.275 161.236,9.950 161.635,10.500 161.994 C 11.050 162.354,12.084 162.966,12.797 163.355 C 13.510 163.743,14.260 164.203,14.464 164.376 C 14.979 164.814,20.615 168.333,20.801 168.333 C 20.884 168.333,21.856 168.933,22.960 169.667 C 24.064 170.400,25.046 171.000,25.141 171.000 C 25.236 171.000,25.994 171.479,26.825 172.065 C 28.639 173.344,28.761 173.252,29.473 170.061 L 30.018 167.622 29.259 166.987 C 28.842 166.638,28.222 166.258,27.882 166.143 C 27.085 165.872,24.992 164.454,25.150 164.291 C 25.216 164.223,25.345 163.717,25.435 163.167 C 25.642 161.904,27.066 155.873,27.194 155.716 C 27.335 155.544,29.376 155.296,31.216 155.227 L 32.825 155.167 33.385 152.833 C 34.325 148.922,34.451 149.017,29.167 149.673 M21.892 156.466 C 21.794 156.723,21.533 157.885,21.312 159.050 C 20.750 162.011,20.853 162.005,16.190 159.321 C 13.879 157.990,12.042 156.847,12.108 156.781 C 12.174 156.715,13.714 156.569,15.531 156.457 C 17.347 156.345,18.896 156.197,18.972 156.127 C 19.409 155.728,22.058 156.036,21.892 156.466 M132.333 168.667 L 132.333 177.667 146.000 177.667 L 159.667 177.667 159.667 195.833 L 159.667 214.000 167.333 214.000 L 175.000 214.000 175.000 220.333 L 175.000 226.667 166.161 226.667 L 157.322 226.667 157.411 235.583 L 157.500 244.500 166.250 244.589 L 175.000 244.678 175.000 251.006 L 175.000 257.333 160.333 257.333 L 145.667 257.333 145.667 242.000 L 145.667 226.667 135.498 226.667 L 125.329 226.667 125.414 250.917 L 125.500 275.167 160.417 275.252 L 195.333 275.336 195.333 235.668 L 195.333 196.000 187.494 196.000 L 179.655 196.000 179.744 177.833 L 179.833 159.667 156.083 159.667 L 132.333 159.667 132.333 168.667 M220.222 159.889 C 220.100 160.011,220.000 168.186,220.000 178.056 L 220.000 196.000 212.333 196.000 L 204.667 196.000 204.667 235.668 L 204.667 275.336 239.583 275.252 L 274.500 275.167 274.586 250.917 L 274.671 226.667 264.502 226.667 L 254.333 226.667 254.333 242.000 L 254.333 257.333 239.667 257.333 L 225.000 257.333 225.000 251.006 L 225.000 244.678 233.750 244.589 L 242.500 244.500 242.589 235.583 L 242.678 226.667 233.839 226.667 L 225.000 226.667 225.000 220.333 L 225.000 214.000 232.667 214.000 L 240.333 214.000 240.333 195.833 L 240.333 177.667 254.000 177.667 L 267.667 177.667 267.667 168.667 L 267.667 159.667 244.056 159.667 C 231.069 159.667,220.344 159.767,220.222 159.889 M389.914 173.634 C 381.147 179.500,382.278 179.077,373.333 179.826 C 371.685 179.964,371.650 179.985,371.842 180.750 C 371.945 181.162,372.037 181.875,372.046 182.333 C 372.092 184.613,372.396 185.692,372.948 185.534 C 373.252 185.447,374.625 185.275,376.000 185.152 C 377.375 185.028,378.742 184.882,379.037 184.825 C 379.671 184.704,382.426 184.580,382.667 184.661 C 382.758 184.692,383.065 184.763,383.348 184.819 C 383.631 184.875,384.531 185.216,385.348 185.576 C 387.113 186.354,390.764 187.816,391.000 187.840 C 391.092 187.849,391.467 188.024,391.833 188.229 C 392.200 188.434,392.650 188.634,392.833 188.674 C 393.017 188.714,393.467 188.864,393.833 189.008 C 397.334 190.381,399.843 191.333,399.958 191.333 C 400.036 191.333,399.990 190.096,399.857 188.583 C 399.724 187.071,399.602 185.652,399.585 185.431 C 399.558 185.065,397.843 184.468,397.557 184.725 C 397.490 184.784,397.225 184.663,396.968 184.455 C 396.711 184.247,394.491 183.444,392.035 182.671 L 387.570 181.266 390.535 179.595 C 392.166 178.676,394.175 177.546,395.000 177.085 C 395.825 176.624,396.725 176.064,397.000 175.841 C 397.275 175.617,397.772 175.338,398.104 175.220 C 398.437 175.101,398.632 174.881,398.539 174.730 C 398.446 174.579,398.278 173.120,398.167 171.487 C 398.055 169.855,397.927 168.483,397.882 168.438 C 397.838 168.393,394.252 170.731,389.914 173.634 M1.309 174.946 C 1.295 175.984,1.234 177.133,1.174 177.500 C 0.899 179.170,-0.108 193.669,0.041 193.818 C 0.133 193.910,1.286 194.071,2.604 194.176 L 5.000 194.366 5.013 193.266 C 5.027 192.087,5.384 186.868,5.456 186.781 C 5.480 186.752,8.800 187.003,12.833 187.340 C 16.867 187.676,21.854 188.053,23.917 188.177 L 27.667 188.403 27.679 186.785 C 27.686 185.895,27.774 184.601,27.874 183.909 C 28.049 182.703,28.018 182.653,27.112 182.683 C 25.589 182.734,6.345 181.123,6.150 180.928 C 6.052 180.830,6.095 179.081,6.244 177.042 L 6.516 173.333 5.008 173.286 C 4.179 173.260,3.013 173.198,2.417 173.148 L 1.333 173.058 1.309 174.946 M40.763 225.277 C 38.537 227.570,35.425 232.354,35.200 233.828 C 35.171 234.014,35.041 234.337,34.911 234.545 C 34.354 235.436,33.639 239.586,33.610 242.105 C 33.527 249.114,35.816 254.811,41.303 261.250 L 42.794 263.001 43.578 261.296 C 45.073 258.043,46.708 248.386,46.183 245.902 C 46.098 245.498,45.938 244.117,45.827 242.833 C 45.607 240.299,44.450 236.218,43.355 234.117 C 42.300 232.092,41.745 225.889,42.508 224.653 C 43.072 223.741,41.819 224.188,40.763 225.277 M357.679 226.083 C 358.047 229.841,357.765 231.665,356.326 234.833 C 354.707 238.396,354.239 240.553,353.869 246.167 C 353.767 247.713,354.052 251.592,354.470 254.333 C 354.811 256.571,355.428 258.848,356.265 260.963 L 357.108 263.093 358.137 261.933 C 358.704 261.295,359.467 260.358,359.833 259.850 C 360.200 259.342,360.650 258.755,360.834 258.546 C 361.958 257.268,364.880 252.000,364.465 252.000 C 364.348 252.000,364.422 251.794,364.631 251.543 C 365.963 249.939,366.798 243.183,366.182 239.000 C 365.739 235.987,363.822 230.846,362.938 230.296 C 362.757 230.184,362.637 229.986,362.671 229.857 C 362.859 229.126,358.519 224.000,357.712 224.000 C 357.582 224.000,357.567 224.938,357.679 226.083 M53.121 241.917 C 53.015 242.237,52.720 242.973,52.464 243.550 C 52.209 244.128,52.000 244.907,52.000 245.281 C 52.000 245.655,51.861 246.046,51.692 246.151 C 51.523 246.256,51.129 247.127,50.818 248.087 C 50.506 249.048,49.692 250.958,49.009 252.333 C 47.700 254.970,46.746 257.581,46.502 259.197 C 46.421 259.730,46.193 261.217,45.995 262.500 C 45.519 265.588,45.887 270.139,46.884 273.500 C 47.156 274.417,47.452 275.542,47.542 276.000 C 47.632 276.458,47.848 276.884,48.022 276.945 C 48.195 277.007,48.268 277.170,48.182 277.308 C 48.030 277.554,50.734 283.109,51.393 283.904 C 52.065 284.715,56.670 279.629,56.667 278.079 C 56.667 277.847,56.807 277.397,56.978 277.079 C 59.078 273.173,57.877 263.701,54.273 255.753 C 53.508 254.066,53.322 253.258,53.455 252.201 C 53.938 248.372,54.384 242.280,54.214 241.837 C 53.953 241.157,53.356 241.200,53.121 241.917 M345.830 242.347 C 345.708 242.905,345.708 244.218,345.830 245.264 C 345.953 246.311,346.105 247.767,346.169 248.500 C 346.232 249.233,346.377 250.629,346.492 251.601 C 346.678 253.185,346.542 253.757,345.182 257.101 C 340.569 268.442,340.998 277.236,346.431 282.669 C 348.370 284.608,348.389 284.599,350.298 280.919 C 352.797 276.103,354.401 269.401,354.146 264.833 C 353.846 259.432,353.328 257.440,350.794 251.936 C 349.807 249.792,349.000 247.833,349.000 247.583 C 349.000 247.332,348.780 246.836,348.511 246.480 C 348.241 246.125,348.016 245.556,348.011 245.217 C 348.005 244.878,347.791 244.128,347.536 243.550 C 347.280 242.973,346.985 242.237,346.879 241.917 C 346.583 241.017,346.077 241.225,345.830 242.347 M22.000 246.086 C 22.000 246.499,22.158 247.362,22.352 248.002 C 22.545 248.643,22.766 249.451,22.842 249.799 C 22.918 250.147,23.366 251.797,23.837 253.466 C 24.602 256.175,25.139 257.990,26.904 263.833 C 27.554 265.986,30.241 272.139,31.232 273.743 C 31.654 274.427,32.000 275.083,32.000 275.201 C 32.000 276.673,38.478 283.533,41.062 284.797 C 43.526 286.002,48.210 286.199,47.864 285.083 C 47.764 284.762,47.592 283.920,47.481 283.210 C 46.297 275.630,40.696 267.376,33.667 262.854 C 30.801 261.011,30.114 260.353,29.117 258.499 C 28.722 257.766,28.116 256.642,27.769 256.000 C 27.422 255.358,26.501 253.333,25.722 251.500 C 24.943 249.667,24.162 247.906,23.986 247.588 C 23.810 247.270,23.667 246.836,23.667 246.625 C 23.667 246.233,22.704 245.363,22.250 245.344 C 22.113 245.338,22.000 245.672,22.000 246.086 M376.795 245.922 C 376.590 246.056,376.311 246.542,376.175 247.000 C 375.375 249.680,371.161 258.392,369.860 260.053 C 369.479 260.540,367.816 261.838,366.166 262.936 C 362.238 265.549,358.944 268.998,356.075 273.500 C 354.670 275.706,353.336 279.423,352.487 283.500 C 351.980 285.935,351.845 285.794,354.665 285.772 C 363.077 285.707,369.715 275.912,375.823 254.554 C 378.369 245.652,378.462 244.823,376.795 245.922 M64.813 271.583 C 64.489 272.730,64.493 272.718,64.196 273.391 C 64.060 273.697,63.908 274.147,63.858 274.391 C 63.808 274.634,63.658 275.084,63.525 275.391 C 63.391 275.697,63.248 276.180,63.206 276.464 C 63.165 276.748,63.026 277.085,62.899 277.213 C 62.771 277.340,62.667 277.661,62.667 277.926 C 62.667 278.191,62.104 279.104,61.417 279.955 C 55.516 287.261,55.127 297.019,60.326 307.319 L 61.328 309.303 62.581 308.729 C 70.307 305.190,71.494 298.582,66.843 285.000 C 66.247 283.258,65.813 281.533,65.878 281.167 C 66.466 277.882,66.699 275.210,66.526 273.715 C 66.195 270.854,65.325 269.771,64.813 271.583 M333.924 271.583 C 333.482 272.615,333.487 278.819,333.931 280.667 C 334.160 281.619,333.974 282.537,332.917 285.667 C 330.614 292.489,329.937 296.984,330.676 300.544 C 331.108 302.626,331.959 304.667,332.395 304.667 C 332.544 304.667,332.667 304.867,332.667 305.112 C 332.667 305.905,335.190 307.847,337.449 308.791 L 338.668 309.300 340.157 306.233 C 344.450 297.388,344.066 285.593,339.335 281.000 C 338.667 280.352,337.333 278.293,337.333 277.911 C 337.333 277.654,337.229 277.340,337.101 277.213 C 336.974 277.085,336.835 276.748,336.794 276.464 C 336.752 276.180,336.609 275.697,336.475 275.391 C 336.342 275.084,336.192 274.634,336.142 274.391 C 336.092 274.147,335.940 273.697,335.804 273.391 C 335.507 272.718,335.511 272.730,335.187 271.583 C 335.044 271.079,334.790 270.667,334.622 270.667 C 334.454 270.667,334.140 271.079,333.924 271.583 M27.794 278.149 C 27.569 278.735,29.139 282.661,31.125 286.477 C 31.881 287.931,33.250 290.558,34.167 292.314 C 35.083 294.071,36.321 296.181,36.917 297.004 C 37.514 297.827,38.564 299.325,39.250 300.333 C 41.048 302.972,46.576 308.394,48.443 309.350 C 49.320 309.799,50.591 310.456,51.269 310.809 C 54.037 312.252,60.609 311.419,59.676 309.743 C 59.500 309.426,58.880 308.117,58.300 306.833 C 54.870 299.255,48.083 293.495,39.277 290.689 C 37.610 290.158,34.324 286.136,30.995 280.552 C 29.731 278.432,28.143 277.240,27.794 278.149 M370.408 278.519 C 370.000 278.804,369.667 279.174,369.667 279.341 C 369.667 279.735,365.983 285.425,365.520 285.745 C 365.326 285.880,365.279 285.992,365.417 285.995 C 365.554 285.998,365.437 286.262,365.156 286.583 C 364.876 286.904,364.041 287.865,363.301 288.717 C 362.285 289.890,361.454 290.450,359.895 291.013 C 356.641 292.190,354.000 293.399,354.000 293.712 C 354.000 293.870,353.828 294.000,353.618 294.000 C 352.214 294.000,344.667 300.748,344.667 302.004 C 344.667 302.185,344.525 302.333,344.352 302.333 C 343.993 302.333,343.628 302.960,341.534 307.167 C 339.668 310.915,339.838 311.197,344.188 311.575 C 348.740 311.970,354.758 308.052,359.919 301.333 C 360.694 300.325,361.444 299.350,361.586 299.167 C 362.691 297.742,364.726 294.400,365.842 292.175 C 366.580 290.704,367.328 289.275,367.504 289.000 C 367.679 288.725,367.839 288.425,367.859 288.333 C 367.878 288.242,368.893 286.110,370.114 283.596 C 372.814 278.035,372.886 276.783,370.408 278.519 M169.833 294.681 C 169.100 295.026,167.637 295.408,166.583 295.530 C 164.024 295.827,163.632 297.433,166.021 297.837 C 167.898 298.154,168.000 298.593,168.000 306.355 C 168.000 313.658,167.817 314.333,165.833 314.333 C 165.130 314.333,165.000 314.489,165.000 315.333 L 165.000 316.333 170.833 316.333 L 176.667 316.333 176.667 315.333 C 176.667 314.466,176.545 314.333,175.750 314.328 C 173.795 314.317,173.842 314.560,173.736 303.846 L 173.638 294.000 172.402 294.027 C 171.723 294.042,170.567 294.336,169.833 294.681 M185.833 294.797 C 181.401 297.006,180.277 302.722,183.559 306.355 C 185.258 308.236,188.962 309.245,190.717 308.306 C 191.683 307.789,191.751 308.016,191.343 310.382 C 190.565 314.892,188.689 315.810,186.047 312.974 C 184.837 311.674,182.333 312.351,182.333 313.977 C 182.333 314.800,183.292 316.590,183.328 315.833 C 183.336 315.650,183.486 315.725,183.660 316.000 C 184.299 317.012,189.377 316.892,191.507 315.815 C 197.270 312.899,199.901 303.591,196.615 297.741 C 194.629 294.206,189.713 292.864,185.833 294.797 M207.500 294.633 C 202.677 296.871,200.348 301.547,200.757 308.167 C 200.977 311.717,203.045 315.523,204.796 315.597 C 204.959 315.604,205.215 315.808,205.365 316.051 C 206.031 317.128,211.673 316.627,213.482 315.330 C 217.984 312.100,217.750 305.223,213.058 302.850 C 211.635 302.131,207.973 301.998,207.202 302.637 C 206.689 303.063,206.659 302.980,206.844 301.634 C 207.559 296.443,209.661 294.732,212.126 297.333 C 213.598 298.887,214.552 299.020,215.671 297.828 C 218.194 295.143,211.794 292.641,207.500 294.633 M224.427 294.283 C 222.446 294.864,219.982 297.829,219.501 300.210 C 218.724 304.062,219.037 310.197,220.109 312.129 C 224.013 319.162,233.383 317.889,234.814 310.130 C 236.843 299.134,232.175 292.013,224.427 294.283 M228.497 297.027 C 229.348 298.475,229.520 311.329,228.714 313.239 C 227.938 315.078,225.933 314.982,225.521 313.086 C 225.412 312.580,225.245 311.792,225.152 311.333 C 224.855 309.881,224.991 300.472,225.336 298.616 C 225.885 295.659,227.281 294.957,228.497 297.027 M191.070 296.583 C 192.176 297.856,192.469 304.068,191.492 305.558 C 190.149 307.609,188.170 306.183,187.826 302.918 C 187.266 297.597,189.003 294.204,191.070 296.583 M74.828 298.250 C 74.707 299.304,74.553 300.542,74.486 301.000 C 74.419 301.458,74.265 302.583,74.145 303.500 C 74.024 304.417,73.807 305.242,73.663 305.333 C 73.324 305.548,71.699 309.095,71.575 309.891 C 71.523 310.226,71.347 310.715,71.183 310.978 C 70.286 312.417,70.842 320.136,72.061 323.167 C 72.430 324.083,72.970 325.433,73.262 326.167 C 73.827 327.586,76.727 332.180,78.091 333.817 L 78.911 334.801 79.872 334.173 C 83.419 331.853,85.551 327.241,84.858 323.389 C 84.737 322.717,84.571 321.700,84.488 321.130 C 84.305 319.858,82.932 316.161,82.075 314.630 C 81.727 314.008,81.051 312.796,80.572 311.935 C 80.092 311.074,79.301 309.767,78.814 309.031 C 78.087 307.932,77.899 307.195,77.766 304.929 C 77.613 302.325,77.507 301.683,76.719 298.574 C 76.022 295.827,75.124 295.673,74.828 298.250 M323.650 297.700 C 322.908 299.153,322.520 301.183,322.160 305.500 C 322.037 306.966,321.826 308.241,321.690 308.333 C 319.181 310.029,314.796 321.537,315.082 325.672 C 315.296 328.749,318.641 334.803,319.599 333.845 C 319.692 333.753,319.967 333.937,320.210 334.255 C 321.240 335.601,326.682 327.815,327.844 323.333 C 327.915 323.058,328.230 322.158,328.544 321.333 C 330.023 317.443,328.784 307.832,326.511 305.559 C 326.269 305.317,325.973 304.379,325.853 303.476 C 325.734 302.572,325.581 301.458,325.514 301.000 C 325.447 300.542,325.293 299.304,325.172 298.250 C 324.911 295.977,324.588 295.861,323.650 297.700 M209.742 304.917 C 211.206 306.584,211.136 313.547,209.646 314.344 C 207.592 315.444,206.500 313.572,206.500 308.952 C 206.500 304.808,208.003 302.937,209.742 304.917 M39.000 311.017 C 39.000 311.410,39.981 313.409,40.300 313.667 C 40.413 313.758,40.898 314.433,41.377 315.167 C 41.856 315.900,42.605 316.902,43.041 317.393 C 43.477 317.885,44.358 318.999,45.000 319.869 C 45.642 320.739,46.317 321.612,46.500 321.809 C 46.683 322.006,47.279 322.767,47.823 323.500 C 49.979 326.406,57.505 333.512,59.708 334.722 C 60.265 335.028,60.970 335.491,61.276 335.750 C 62.085 336.436,64.666 337.699,64.672 337.411 C 64.675 337.277,64.792 337.348,64.932 337.569 C 66.147 339.480,74.413 339.294,76.527 337.308 L 77.308 336.574 76.237 335.051 C 71.085 327.720,62.127 322.338,53.766 321.551 C 51.445 321.332,49.788 320.150,45.007 315.302 C 40.814 311.050,39.000 309.756,39.000 311.017 M359.672 310.913 C 359.400 311.020,357.300 312.976,355.005 315.259 C 350.360 319.882,348.583 321.254,346.944 321.484 C 344.529 321.823,343.472 321.995,342.833 322.151 C 342.467 322.241,341.492 322.476,340.667 322.673 C 338.715 323.141,332.656 326.125,331.518 327.179 C 331.031 327.631,330.528 328.002,330.399 328.003 C 329.991 328.010,325.513 332.764,324.085 334.708 L 322.708 336.582 323.462 337.208 C 326.538 339.759,331.132 339.618,336.917 336.794 C 338.246 336.145,339.333 335.476,339.333 335.307 C 339.333 335.138,339.558 335.000,339.833 335.000 C 340.108 335.000,340.333 334.850,340.333 334.667 C 340.333 334.483,340.500 334.333,340.704 334.333 C 341.631 334.333,349.955 326.465,352.176 323.490 C 352.719 322.762,353.245 322.092,353.346 322.000 C 353.748 321.635,359.254 314.412,360.137 313.092 C 361.318 311.327,361.109 310.349,359.672 310.913 M92.977 320.250 C 92.964 320.387,92.892 321.325,92.817 322.333 C 92.741 323.342,92.615 324.992,92.536 326.000 C 92.453 327.054,91.970 328.755,91.400 330.000 C 90.154 332.725,89.550 336.158,89.882 338.631 C 90.142 340.571,90.188 340.832,90.342 341.250 C 90.393 341.387,90.463 341.650,90.498 341.833 C 91.147 345.268,93.932 349.920,97.629 353.750 C 99.959 356.164,100.145 356.154,102.813 353.477 C 106.615 349.662,105.895 340.973,101.376 336.123 C 101.030 335.751,100.363 334.859,99.893 334.140 C 99.423 333.422,98.515 332.248,97.877 331.532 C 96.994 330.543,96.664 329.822,96.501 328.532 C 95.986 324.437,94.382 320.000,93.417 320.000 C 93.188 320.000,92.990 320.112,92.977 320.250 M305.316 321.583 C 304.592 323.099,303.351 328.079,303.339 329.521 C 303.336 329.899,302.663 330.949,301.843 331.854 C 301.023 332.759,300.263 333.762,300.154 334.083 C 300.044 334.404,299.815 334.667,299.644 334.667 C 299.473 334.667,299.333 334.823,299.333 335.014 C 299.333 335.205,299.029 335.687,298.658 336.086 C 293.069 342.085,293.630 353.102,299.641 355.387 C 300.435 355.689,306.070 350.625,305.535 350.090 C 305.446 350.002,305.674 349.608,306.042 349.215 C 306.630 348.587,308.882 344.195,309.444 342.579 C 310.669 339.062,310.296 333.483,308.605 330.012 C 307.531 327.810,307.479 327.535,307.352 323.500 C 307.225 319.481,306.602 318.894,305.316 321.583 M112.126 338.583 C 112.549 340.030,113.354 346.742,113.173 347.312 C 112.426 349.667,112.191 353.352,112.663 355.320 C 112.863 356.152,113.022 356.945,113.017 357.082 C 112.890 360.304,121.779 370.530,126.064 372.092 C 127.796 372.723,130.482 367.358,130.259 363.714 C 130.105 361.184,129.961 360.795,127.909 357.333 C 126.726 355.338,123.238 351.722,120.170 349.312 C 118.894 348.308,117.926 347.249,117.680 346.585 C 116.162 342.491,114.158 338.953,113.009 338.338 C 112.119 337.862,111.930 337.914,112.126 338.583 M286.160 339.151 C 285.563 339.784,284.771 340.946,284.399 341.734 C 283.066 344.561,282.378 346.205,282.155 347.095 C 282.030 347.593,281.796 348.000,281.635 348.000 C 280.716 348.000,274.161 354.238,272.353 356.833 C 268.757 361.997,268.701 366.805,272.191 370.897 C 273.603 372.552,273.622 372.549,277.000 370.063 C 285.260 363.986,288.816 356.506,287.168 348.675 C 286.688 346.393,286.944 342.607,287.839 338.750 C 288.092 337.657,287.416 337.819,286.160 339.151 M56.667 342.772 C 56.667 343.013,57.436 343.876,58.377 344.689 C 59.318 345.502,60.255 346.326,60.460 346.520 C 60.808 346.850,65.615 350.511,67.809 352.119 C 68.346 352.512,69.171 353.145,69.643 353.527 C 70.114 353.908,70.725 354.322,71.000 354.447 C 71.275 354.572,71.950 354.968,72.500 355.328 C 73.902 356.245,76.620 357.682,76.877 357.643 C 76.995 357.625,77.184 357.741,77.296 357.901 C 77.495 358.186,81.364 359.990,82.119 360.150 C 82.329 360.195,82.927 360.406,83.448 360.619 C 85.027 361.266,90.059 362.022,91.490 361.828 C 95.188 361.326,96.301 360.827,98.079 358.871 C 99.605 357.191,99.604 357.286,98.095 356.135 C 97.414 355.615,96.600 354.960,96.286 354.679 C 94.724 353.279,91.893 351.570,90.156 350.978 C 89.429 350.730,88.653 350.397,88.433 350.236 C 86.727 348.996,79.036 348.156,74.833 348.752 C 71.697 349.197,71.062 349.152,69.322 348.363 C 67.117 347.364,63.306 345.276,62.077 344.394 C 61.485 343.969,61.000 343.699,61.000 343.795 C 61.000 343.890,60.603 343.600,60.118 343.151 C 59.131 342.236,56.667 341.966,56.667 342.772 M340.667 342.667 C 340.667 342.850,340.442 343.000,340.167 343.000 C 339.892 343.000,339.667 343.150,339.667 343.333 C 339.667 343.517,339.520 343.667,339.340 343.667 C 339.160 343.667,338.223 344.168,337.256 344.780 C 330.876 348.824,329.078 349.412,325.138 348.744 C 322.455 348.288,317.347 348.518,315.027 349.197 C 314.004 349.497,313.017 349.770,312.833 349.804 C 312.650 349.838,312.125 350.071,311.667 350.322 C 311.208 350.574,310.789 350.738,310.736 350.688 C 310.119 350.115,300.667 356.327,300.667 357.306 C 300.667 357.922,303.250 360.339,304.435 360.831 C 307.313 362.026,314.139 362.123,314.846 360.980 C 314.942 360.824,315.226 360.774,315.477 360.871 C 315.728 360.967,316.032 360.885,316.153 360.689 C 316.274 360.494,316.666 360.333,317.024 360.333 C 317.383 360.333,317.936 360.200,318.255 360.036 C 318.573 359.873,320.483 358.943,322.500 357.968 C 326.403 356.083,330.204 353.799,330.957 352.887 C 331.209 352.583,331.555 352.333,331.727 352.333 C 331.899 352.333,333.248 351.396,334.726 350.250 C 336.203 349.104,338.257 347.516,339.290 346.721 C 343.550 343.438,344.233 342.333,342.000 342.333 C 341.267 342.333,340.667 342.483,340.667 342.667 M135.000 352.802 C 135.000 352.916,135.137 353.270,135.304 353.588 C 136.578 356.009,137.924 360.620,137.766 362.017 C 136.925 369.462,142.346 377.390,151.378 381.923 C 153.289 382.882,155.023 383.667,155.232 383.667 C 155.643 383.667,157.215 381.328,157.081 380.917 C 157.037 380.779,157.131 380.667,157.290 380.667 C 157.800 380.667,158.424 377.726,158.265 376.070 C 157.800 371.235,152.047 365.271,144.531 361.833 C 143.279 361.261,142.637 360.734,142.352 360.046 C 142.130 359.509,141.697 358.792,141.391 358.452 C 141.084 358.112,140.628 357.435,140.378 356.949 C 139.374 355.002,135.000 351.628,135.000 352.802 M261.875 354.382 C 260.836 355.325,260.048 356.159,260.125 356.236 C 260.201 356.312,259.926 356.739,259.513 357.184 C 259.100 357.630,258.418 358.644,257.996 359.438 C 257.413 360.537,256.784 361.113,255.365 361.846 C 253.352 362.886,250.069 364.904,249.454 365.479 C 249.245 365.674,248.645 366.132,248.120 366.497 C 242.504 370.406,240.385 376.222,242.801 381.096 C 244.175 383.868,244.464 383.941,247.777 382.360 C 249.306 381.630,250.749 380.802,250.983 380.520 C 251.217 380.238,251.517 380.074,251.650 380.156 C 252.041 380.398,257.867 375.147,258.931 373.594 C 261.378 370.022,262.029 367.863,262.136 362.968 C 262.195 360.286,263.286 356.291,264.698 353.588 C 265.530 351.995,264.045 352.412,261.875 354.382 M161.081 362.910 C 160.771 363.019,160.826 363.289,161.288 363.945 C 161.633 364.434,162.346 365.641,162.874 366.628 C 163.402 367.615,164.043 368.807,164.300 369.277 C 164.556 369.746,164.975 371.339,165.230 372.815 C 166.098 377.831,170.359 384.116,174.209 386.061 C 175.637 386.782,176.812 387.474,177.000 387.705 C 177.092 387.818,177.529 388.023,177.971 388.161 C 178.413 388.300,179.313 388.648,179.971 388.936 C 180.629 389.224,181.242 389.481,181.333 389.508 C 181.425 389.534,181.946 389.740,182.492 389.965 C 183.918 390.553,185.894 390.774,186.142 390.373 C 186.354 390.030,187.200 390.216,187.833 390.744 C 188.177 391.031,191.162 392.838,193.487 394.166 C 195.286 395.194,195.291 395.517,193.525 396.322 C 191.437 397.273,190.728 398.369,191.469 399.500 C 192.494 401.064,195.153 400.502,198.709 397.970 C 199.880 397.136,200.123 397.160,201.773 398.273 C 205.586 400.845,208.612 401.053,208.938 398.767 C 209.043 398.026,207.090 396.285,205.633 395.823 C 204.721 395.533,204.854 394.875,205.917 394.422 C 206.421 394.208,208.333 393.137,210.167 392.044 C 212.212 390.825,213.622 390.174,213.817 390.362 C 214.325 390.852,215.390 390.721,217.930 389.857 C 227.603 386.567,234.163 379.696,234.819 372.167 C 234.950 370.668,235.268 369.850,236.586 367.623 C 239.164 363.267,239.268 363.046,238.826 362.877 C 238.312 362.680,236.144 363.729,235.177 364.643 C 233.034 366.669,231.103 368.623,230.667 369.209 C 230.392 369.578,229.192 370.229,228.000 370.655 C 217.904 374.271,212.672 378.687,212.195 383.995 C 212.105 385.000,211.872 385.876,211.676 385.941 C 211.481 386.006,211.136 386.234,210.909 386.446 C 210.556 386.777,209.151 387.726,204.667 390.658 C 204.208 390.958,203.346 391.401,202.750 391.642 C 202.154 391.883,201.667 392.201,201.667 392.347 C 201.667 393.225,199.590 392.994,197.594 391.894 C 196.442 391.259,194.984 390.460,194.353 390.120 C 193.079 389.432,192.854 389.279,191.699 388.327 C 191.258 387.964,190.807 387.667,190.695 387.667 C 189.744 387.667,188.011 385.360,187.839 383.865 C 187.386 379.905,183.811 376.017,178.044 373.211 C 176.758 372.585,175.622 372.156,175.519 372.258 C 175.417 372.361,175.333 372.269,175.333 372.056 C 175.333 371.842,175.042 371.667,174.686 371.667 C 174.330 371.667,173.958 371.535,173.859 371.374 C 173.759 371.214,172.963 370.903,172.089 370.684 C 170.774 370.354,170.068 369.840,168.000 367.706 C 164.453 364.046,162.231 362.505,161.081 362.910 M81.723 368.098 C 81.376 368.517,81.461 368.710,82.236 369.252 C 83.115 369.866,89.713 373.272,90.250 373.389 C 90.387 373.419,92.058 374.171,93.962 375.060 C 95.866 375.949,97.816 376.770,98.295 376.884 C 98.775 376.999,99.323 377.213,99.513 377.362 C 99.704 377.510,100.454 377.773,101.180 377.945 C 101.906 378.117,104.000 378.664,105.833 379.159 C 115.087 381.659,122.857 380.160,125.340 375.395 C 126.240 373.669,126.224 373.650,122.167 371.706 C 114.395 367.982,106.506 367.782,98.584 371.108 C 96.838 371.841,88.929 370.138,85.576 368.308 C 84.427 367.680,82.172 367.558,81.723 368.098 M313.167 368.716 C 310.697 369.648,310.108 369.856,309.667 369.951 C 309.575 369.970,308.730 370.215,307.790 370.494 C 304.019 371.614,302.802 371.701,301.101 370.972 C 293.275 367.617,284.525 368.074,276.550 372.254 C 273.529 373.838,273.473 375.048,276.304 377.615 C 278.844 379.919,288.842 381.373,291.375 379.808 C 291.546 379.702,292.094 379.557,292.593 379.484 C 293.092 379.412,294.325 379.115,295.333 378.825 C 296.342 378.535,297.590 378.220,298.107 378.125 C 299.300 377.906,303.032 376.505,304.619 375.682 C 305.287 375.335,306.958 374.568,308.333 373.977 C 309.708 373.387,311.096 372.677,311.417 372.400 C 311.737 372.123,312.000 371.997,312.000 372.119 C 312.000 372.419,316.803 369.996,316.944 369.626 C 317.006 369.465,317.250 369.333,317.487 369.333 C 318.259 369.333,318.869 368.332,318.312 367.980 C 317.480 367.453,315.917 367.677,313.167 368.716 M139.500 382.885 C 135.853 383.461,129.437 386.089,127.677 387.729 C 126.850 388.499,121.372 388.386,115.873 387.483 C 113.030 387.017,112.218 386.980,112.016 387.308 C 111.874 387.537,111.626 387.703,111.463 387.678 C 110.698 387.559,111.073 388.610,111.901 388.907 C 113.967 389.648,116.270 390.346,118.167 390.805 C 119.267 391.071,121.442 391.608,123.000 391.999 C 124.558 392.389,126.133 392.748,126.500 392.797 C 126.867 392.845,127.392 392.971,127.667 393.076 C 129.035 393.598,134.689 394.113,139.000 394.107 C 147.852 394.094,152.953 391.949,154.834 387.447 C 155.717 385.333,155.600 385.163,152.583 384.207 C 148.606 382.945,142.823 382.361,139.500 382.885 M252.667 382.881 C 248.631 383.534,244.667 384.976,244.667 385.790 C 244.667 388.943,248.729 392.312,254.004 393.534 C 258.229 394.514,271.059 394.074,272.591 392.898 C 272.825 392.718,273.097 392.652,273.195 392.750 C 273.293 392.849,274.152 392.716,275.103 392.456 C 276.055 392.195,277.433 391.846,278.167 391.679 C 278.900 391.513,280.100 391.212,280.833 391.011 C 281.567 390.810,282.542 390.568,283.000 390.474 C 283.936 390.282,285.481 389.817,287.583 389.097 C 291.027 387.917,288.503 386.735,284.130 387.481 C 278.873 388.377,273.256 388.546,272.424 387.833 C 268.249 384.259,258.793 381.889,252.667 382.881 M173.333 391.439 C 173.242 391.530,172.717 391.685,172.167 391.784 C 171.617 391.883,170.717 392.051,170.167 392.156 C 167.726 392.625,162.722 395.485,160.000 397.968 C 157.873 399.907,155.992 400.319,149.002 400.378 C 142.755 400.430,140.201 402.193,145.503 402.793 C 167.737 405.308,180.301 403.449,184.559 397.014 C 186.123 394.651,186.375 392.468,185.116 392.195 C 184.594 392.081,183.792 391.895,183.333 391.781 C 182.275 391.517,173.556 391.219,173.333 391.439 M218.167 391.489 C 217.983 391.545,216.974 391.782,215.925 392.014 C 213.467 392.557,213.379 394.237,215.646 397.332 C 218.108 400.693,221.518 402.230,229.438 403.547 C 233.049 404.148,249.364 403.695,253.667 402.875 C 254.125 402.788,254.884 402.705,255.353 402.691 C 255.822 402.678,256.491 402.458,256.839 402.204 C 258.231 401.186,255.833 400.415,251.188 400.388 C 244.557 400.349,241.836 399.841,240.404 398.375 C 237.999 395.913,232.238 392.538,229.811 392.168 C 229.273 392.086,228.233 391.869,227.500 391.684 C 226.307 391.384,219.001 391.231,218.167 391.489 " stroke="none" fill="#a42424" fill-rule="evenodd"></path><path id="path1" d="M210.150 122.167 C 210.150 128.400,210.195 130.903,210.250 127.729 C 210.304 124.554,210.304 119.454,210.249 116.395 C 210.194 113.336,210.150 115.933,210.150 122.167 M132.479 142.500 C 132.479 147.450,132.525 149.521,132.582 147.103 C 132.639 144.685,132.639 140.635,132.583 138.103 C 132.526 135.571,132.479 137.550,132.479 142.500 M210.156 169.500 C 210.156 179.583,210.198 183.756,210.250 178.774 C 210.302 173.791,210.302 165.541,210.250 160.440 C 210.198 155.340,210.156 159.417,210.156 169.500 M179.822 178.000 C 179.822 187.992,179.865 192.079,179.916 187.083 C 179.968 182.087,179.968 173.912,179.916 168.917 C 179.865 163.921,179.822 168.008,179.822 178.000 M172.083 293.896 C 172.404 293.980,172.929 293.980,173.250 293.896 C 173.571 293.813,173.308 293.744,172.667 293.744 C 172.025 293.744,171.762 293.813,172.083 293.896 " stroke="none" fill="#ac2424" fill-rule="evenodd"></path></g></svg>